<svg width="87" height="10" viewBox="0 0 87 10" fill="none" xmlns="http://www.w3.org/2000/svg">
<path d="M3 2.5625C4.35 2.5625 5.4375 3.65 5.4375 5C5.4375 6.35 4.35 7.4375 3 7.4375C1.65 7.4375 0.5625 6.35 0.5625 5C0.5625 3.65 1.65 2.5625 3 2.5625ZM3 2C1.35 2 0 3.35 0 5C0 6.65 1.35 8 3 8C4.65 8 6 6.65 6 5C6 3.35 4.65 2 3 2Z" fill="white"/>
<path d="M3.7125 5.8625C3.525 6.0125 3.2625 6.125 3 6.125C2.3625 6.125 1.875 5.6375 1.875 5C1.875 4.3625 2.3625 3.875 3 3.875C3.3 3.875 3.6 3.9875 3.7875 4.2125L4.2 3.8C3.9 3.5 3.45 3.3125 3 3.3125C2.0625 3.3125 1.3125 4.0625 1.3125 5C1.3125 5.9375 2.0625 6.6875 3 6.6875C3.4125 6.6875 3.75 6.5375 4.05 6.3125L3.7125 5.8625Z" fill="white"/>
<path d="M11.6523 8H9.56641V2.36328H11.6406C12.125 2.36328 12.5169 2.49089 12.8164 2.74609C13.1185 3.0013 13.2695 3.33724 13.2695 3.75391C13.2695 4.06641 13.1719 4.34245 12.9766 4.58203C12.7839 4.82161 12.5378 4.96875 12.2383 5.02344V5.05078C12.6341 5.09766 12.9531 5.2474 13.1953 5.5C13.4375 5.75 13.5586 6.06771 13.5586 6.45312C13.5586 6.9349 13.3893 7.3138 13.0508 7.58984C12.7122 7.86328 12.2461 8 11.6523 8ZM10.0977 2.83594V4.86719H11.3711C11.7982 4.86719 12.1315 4.77474 12.3711 4.58984C12.6107 4.40234 12.7305 4.14323 12.7305 3.8125C12.7305 3.50521 12.6237 3.26562 12.4102 3.09375C12.1966 2.92188 11.9023 2.83594 11.5273 2.83594H10.0977ZM10.0977 7.52734H11.582C12.0404 7.52734 12.3932 7.43229 12.6406 7.24219C12.888 7.04948 13.0117 6.77734 13.0117 6.42578C13.0117 6.07422 12.8815 5.80339 12.6211 5.61328C12.3633 5.42318 11.9922 5.32812 11.5078 5.32812H10.0977V7.52734ZM17.7227 5.03516H17.207C17.1393 4.78776 17 4.58854 16.7891 4.4375C16.5807 4.28385 16.3216 4.20703 16.0117 4.20703C15.5977 4.20703 15.2656 4.36068 15.0156 4.66797C14.7656 4.97526 14.6406 5.38411 14.6406 5.89453C14.6406 6.41276 14.7656 6.82422 15.0156 7.12891C15.2682 7.43099 15.6016 7.58203 16.0156 7.58203C16.3177 7.58203 16.5729 7.51302 16.7812 7.375C16.9896 7.23438 17.1315 7.03906 17.207 6.78906H17.7227C17.6445 7.16667 17.4505 7.47135 17.1406 7.70312C16.8333 7.93229 16.4583 8.04688 16.0156 8.04688C15.4401 8.04688 14.9792 7.85417 14.6328 7.46875C14.2891 7.08073 14.1172 6.55599 14.1172 5.89453C14.1172 5.24349 14.2891 4.72266 14.6328 4.33203C14.9792 3.94141 15.4375 3.74609 16.0078 3.74609C16.4635 3.74609 16.8451 3.86849 17.1523 4.11328C17.4622 4.35807 17.6523 4.66536 17.7227 5.03516ZM20.1367 4.20312C19.7591 4.20312 19.4479 4.33203 19.2031 4.58984C18.9609 4.84505 18.8281 5.18229 18.8047 5.60156H21.4219C21.4167 5.18229 21.2956 4.84505 21.0586 4.58984C20.8242 4.33203 20.5169 4.20312 20.1367 4.20312ZM21.3945 6.80859H21.9062C21.8438 7.17057 21.6523 7.46745 21.332 7.69922C21.0143 7.93099 20.6289 8.04688 20.1758 8.04688C19.5924 8.04688 19.1289 7.85547 18.7852 7.47266C18.4414 7.08724 18.2695 6.5651 18.2695 5.90625C18.2695 5.2526 18.4401 4.72917 18.7812 4.33594C19.125 3.94271 19.5794 3.74609 20.1445 3.74609C20.6966 3.74609 21.1367 3.93229 21.4648 4.30469C21.7956 4.67448 21.9609 5.17188 21.9609 5.79688V6.02344H18.8047V6.05078C18.8047 6.52474 18.9297 6.89974 19.1797 7.17578C19.4323 7.45182 19.7682 7.58984 20.1875 7.58984C20.4974 7.58984 20.7604 7.51823 20.9766 7.375C21.1927 7.23177 21.332 7.04297 21.3945 6.80859ZM27.3672 8V4.22656H25.0469V8H24.5352V3.79297H27.8789V8H27.3672ZM30.8438 3.74609C31.375 3.74609 31.806 3.94401 32.1367 4.33984C32.4701 4.73568 32.6367 5.25391 32.6367 5.89453C32.6367 6.53516 32.4714 7.05469 32.1406 7.45312C31.8125 7.84896 31.3828 8.04688 30.8516 8.04688C30.5208 8.04688 30.2279 7.96484 29.9727 7.80078C29.7201 7.63411 29.5339 7.41146 29.4141 7.13281H29.4023V9.37891H28.8867V3.79297H29.375V4.66406H29.3867C29.4987 4.39323 29.6875 4.17318 29.9531 4.00391C30.2188 3.83203 30.5156 3.74609 30.8438 3.74609ZM30.7539 7.58203C31.1602 7.58203 31.487 7.42839 31.7344 7.12109C31.9844 6.8112 32.1094 6.40365 32.1094 5.89844C32.1094 5.39323 31.9844 4.98568 31.7344 4.67578C31.487 4.36328 31.1602 4.20703 30.7539 4.20703C30.3529 4.20703 30.026 4.36458 29.7734 4.67969C29.5234 4.99219 29.3984 5.39714 29.3984 5.89453C29.3984 6.39453 29.5234 6.80078 29.7734 7.11328C30.026 7.42578 30.3529 7.58203 30.7539 7.58203ZM34.7773 7.59375C35.1549 7.59375 35.4701 7.48177 35.7227 7.25781C35.9779 7.03125 36.1055 6.7513 36.1055 6.41797V5.95312L34.875 6.03906C34.5208 6.0625 34.2513 6.14193 34.0664 6.27734C33.8841 6.41016 33.793 6.59505 33.793 6.83203C33.793 7.05859 33.8841 7.24219 34.0664 7.38281C34.2487 7.52344 34.4857 7.59375 34.7773 7.59375ZM34.6758 8.04688C34.2565 8.04688 33.9167 7.9349 33.6562 7.71094C33.3958 7.48438 33.2656 7.1901 33.2656 6.82812C33.2656 6.46875 33.3971 6.1875 33.6602 5.98438C33.9232 5.77865 34.3073 5.65755 34.8125 5.62109L36.1055 5.53516V5.17578C36.1055 4.86849 36.0117 4.63021 35.8242 4.46094C35.6393 4.29167 35.3776 4.20703 35.0391 4.20703C34.7448 4.20703 34.5013 4.27865 34.3086 4.42188C34.1159 4.5625 33.9961 4.75781 33.9492 5.00781H33.4531C33.474 4.63802 33.6328 4.33594 33.9297 4.10156C34.2292 3.86458 34.6003 3.74609 35.043 3.74609C35.5247 3.74609 35.9076 3.87109 36.1914 4.12109C36.4779 4.37109 36.6211 4.70833 36.6211 5.13281V8H36.1289V7.19531H36.1172C36.0026 7.45052 35.8138 7.65625 35.5508 7.8125C35.2904 7.96875 34.9987 8.04688 34.6758 8.04688ZM39.2227 4.22656H38.0938V5.60547H39.1445C39.4336 5.60547 39.6549 5.54427 39.8086 5.42188C39.9622 5.29948 40.0391 5.1237 40.0391 4.89453C40.0391 4.68099 39.9674 4.51693 39.8242 4.40234C39.6836 4.28516 39.4831 4.22656 39.2227 4.22656ZM39.1836 6.03906H38.0938V7.56641H39.2852C39.5977 7.56641 39.8346 7.5013 39.9961 7.37109C40.1602 7.24089 40.2422 7.04948 40.2422 6.79688C40.2422 6.29167 39.8893 6.03906 39.1836 6.03906ZM37.582 8V3.79297H39.2812C39.6719 3.79297 39.9805 3.88802 40.207 4.07812C40.4336 4.26562 40.5469 4.52214 40.5469 4.84766C40.5469 5.07943 40.4779 5.28255 40.3398 5.45703C40.2018 5.63151 40.026 5.74089 39.8125 5.78516V5.80859C40.0885 5.83984 40.3138 5.94531 40.4883 6.125C40.6628 6.30469 40.75 6.53125 40.75 6.80469C40.75 7.17969 40.6211 7.47266 40.3633 7.68359C40.1055 7.89453 39.75 8 39.2969 8H37.582ZM42.9023 7.59375C43.2799 7.59375 43.5951 7.48177 43.8477 7.25781C44.1029 7.03125 44.2305 6.7513 44.2305 6.41797V5.95312L43 6.03906C42.6458 6.0625 42.3763 6.14193 42.1914 6.27734C42.0091 6.41016 41.918 6.59505 41.918 6.83203C41.918 7.05859 42.0091 7.24219 42.1914 7.38281C42.3737 7.52344 42.6107 7.59375 42.9023 7.59375ZM42.8008 8.04688C42.3815 8.04688 42.0417 7.9349 41.7812 7.71094C41.5208 7.48438 41.3906 7.1901 41.3906 6.82812C41.3906 6.46875 41.5221 6.1875 41.7852 5.98438C42.0482 5.77865 42.4323 5.65755 42.9375 5.62109L44.2305 5.53516V5.17578C44.2305 4.86849 44.1367 4.63021 43.9492 4.46094C43.7643 4.29167 43.5026 4.20703 43.1641 4.20703C42.8698 4.20703 42.6263 4.27865 42.4336 4.42188C42.2409 4.5625 42.1211 4.75781 42.0742 5.00781H41.5781C41.599 4.63802 41.7578 4.33594 42.0547 4.10156C42.3542 3.86458 42.7253 3.74609 43.168 3.74609C43.6497 3.74609 44.0326 3.87109 44.3164 4.12109C44.6029 4.37109 44.7461 4.70833 44.7461 5.13281V8H44.2539V7.19531H44.2422C44.1276 7.45052 43.9388 7.65625 43.6758 7.8125C43.4154 7.96875 43.1237 8.04688 42.8008 8.04688ZM48.8555 8.07422C48.4023 8.07422 48.0273 7.97005 47.7305 7.76172C47.4362 7.55078 47.2656 7.27214 47.2188 6.92578H47.7422C47.7891 7.14193 47.9102 7.3151 48.1055 7.44531C48.3008 7.57292 48.5508 7.63672 48.8555 7.63672C49.1862 7.63672 49.4466 7.5638 49.6367 7.41797C49.8268 7.26953 49.9219 7.07161 49.9219 6.82422C49.9219 6.30078 49.5599 6.03906 48.8359 6.03906H48.1836V5.60547H48.8359C49.1406 5.60547 49.3737 5.54297 49.5352 5.41797C49.6992 5.29036 49.7812 5.10938 49.7812 4.875C49.7812 4.66146 49.7018 4.48958 49.543 4.35938C49.3841 4.22917 49.1589 4.16406 48.8672 4.16406C48.5755 4.16406 48.3359 4.22917 48.1484 4.35938C47.9635 4.48958 47.8503 4.66146 47.8086 4.875H47.3047C47.3568 4.52865 47.5208 4.25 47.7969 4.03906C48.0729 3.82812 48.4297 3.72266 48.8672 3.72266C49.3125 3.72266 49.6602 3.82422 49.9102 4.02734C50.1602 4.23047 50.2852 4.5026 50.2852 4.84375C50.2852 5.07292 50.2135 5.27474 50.0703 5.44922C49.9297 5.62109 49.7461 5.73177 49.5195 5.78125V5.80469C49.8008 5.85677 50.0221 5.96875 50.1836 6.14062C50.3477 6.3125 50.4297 6.53125 50.4297 6.79688C50.4297 7.1849 50.2852 7.49479 49.9961 7.72656C49.7096 7.95833 49.3294 8.07422 48.8555 8.07422ZM52.5898 7.59375C52.9674 7.59375 53.2826 7.48177 53.5352 7.25781C53.7904 7.03125 53.918 6.7513 53.918 6.41797V5.95312L52.6875 6.03906C52.3333 6.0625 52.0638 6.14193 51.8789 6.27734C51.6966 6.41016 51.6055 6.59505 51.6055 6.83203C51.6055 7.05859 51.6966 7.24219 51.8789 7.38281C52.0612 7.52344 52.2982 7.59375 52.5898 7.59375ZM52.4883 8.04688C52.069 8.04688 51.7292 7.9349 51.4688 7.71094C51.2083 7.48438 51.0781 7.1901 51.0781 6.82812C51.0781 6.46875 51.2096 6.1875 51.4727 5.98438C51.7357 5.77865 52.1198 5.65755 52.625 5.62109L53.918 5.53516V5.17578C53.918 4.86849 53.8242 4.63021 53.6367 4.46094C53.4518 4.29167 53.1901 4.20703 52.8516 4.20703C52.5573 4.20703 52.3138 4.27865 52.1211 4.42188C51.9284 4.5625 51.8086 4.75781 51.7617 5.00781H51.2656C51.2865 4.63802 51.4453 4.33594 51.7422 4.10156C52.0417 3.86458 52.4128 3.74609 52.8555 3.74609C53.3372 3.74609 53.7201 3.87109 54.0039 4.12109C54.2904 4.37109 54.4336 4.70833 54.4336 5.13281V8H53.9414V7.19531H53.9297C53.8151 7.45052 53.6263 7.65625 53.3633 7.8125C53.1029 7.96875 52.8112 8.04688 52.4883 8.04688ZM61.2383 9.11328H60.7539V8H55.3945V3.79297H55.9062V7.56641H57.7188V3.79297H58.2305V7.56641H60.0469V3.79297H60.5586V7.56641H61.2383V9.11328ZM62.3906 8H61.8789V3.79297H62.3906V7.19531H62.4141L64.8047 3.79297H65.3164V8H64.8047V4.59766H64.7773L62.3906 8ZM72.168 9.11328H71.6836V8H66.3242V3.79297H66.8359V7.56641H68.6484V3.79297H69.1602V7.56641H70.9766V3.79297H71.4883V7.56641H72.168V9.11328ZM74.4648 4.20312C74.0872 4.20312 73.776 4.33203 73.5312 4.58984C73.2891 4.84505 73.1562 5.18229 73.1328 5.60156H75.75C75.7448 5.18229 75.6237 4.84505 75.3867 4.58984C75.1523 4.33203 74.8451 4.20312 74.4648 4.20312ZM75.7227 6.80859H76.2344C76.1719 7.17057 75.9805 7.46745 75.6602 7.69922C75.3424 7.93099 74.957 8.04688 74.5039 8.04688C73.9206 8.04688 73.457 7.85547 73.1133 7.47266C72.7695 7.08724 72.5977 6.5651 72.5977 5.90625C72.5977 5.2526 72.7682 4.72917 73.1094 4.33594C73.4531 3.94271 73.9076 3.74609 74.4727 3.74609C75.0247 3.74609 75.4648 3.93229 75.793 4.30469C76.1237 4.67448 76.2891 5.17188 76.2891 5.79688V6.02344H73.1328V6.05078C73.1328 6.52474 73.2578 6.89974 73.5078 7.17578C73.7604 7.45182 74.0964 7.58984 74.5156 7.58984C74.8255 7.58984 75.0885 7.51823 75.3047 7.375C75.5208 7.23177 75.6602 7.04297 75.7227 6.80859ZM79.9609 8V6.03125H77.6016V8H77.0898V3.79297H77.6016V5.59766H79.9609V3.79297H80.4727V8H79.9609ZM85.0547 8V3.79297H85.5664V8H85.0547ZM82.9023 5.66016H81.9922V7.56641H82.9023C83.2096 7.56641 83.4544 7.48047 83.6367 7.30859C83.8216 7.13411 83.9141 6.90234 83.9141 6.61328C83.9141 6.32161 83.8216 6.08984 83.6367 5.91797C83.4544 5.74609 83.2096 5.66016 82.9023 5.66016ZM81.4805 8V3.79297H81.9922V5.22266H82.9023C83.3659 5.22266 83.7357 5.34896 84.0117 5.60156C84.2904 5.85156 84.4297 6.1888 84.4297 6.61328C84.4297 7.03516 84.2904 7.3724 84.0117 7.625C83.7357 7.875 83.3659 8 82.9023 8H81.4805Z" fill="white"/>
</svg>
