<svg width="59" height="13" viewBox="0 0 59 13" fill="none" xmlns="http://www.w3.org/2000/svg">
<path d="M6.84375 6.125V8.07812H2.73438V12H0.5625V1.53125H7.70312V3.48438H2.73438V6.125H6.84375Z" fill="#00FBF4"/>
<path d="M15.1562 1.29688C15.8125 1.29688 16.3802 1.39062 16.8594 1.57812C17.3385 1.75521 17.7552 2 18.1094 2.3125V4.5C17.8594 4.3125 17.599 4.13021 17.3281 3.95312C17.0573 3.77604 16.75 3.63021 16.4062 3.51562C16.0729 3.40104 15.6771 3.34375 15.2188 3.34375C14.5938 3.34375 14.026 3.49479 13.5156 3.79688C13.0052 4.09896 12.599 4.50521 12.2969 5.01562C11.9948 5.52604 11.8438 6.10938 11.8438 6.76562C11.8438 7.41146 11.9948 7.99479 12.2969 8.51562C12.599 9.02604 13.0052 9.43229 13.5156 9.73438C14.026 10.026 14.5938 10.1719 15.2188 10.1719C15.9167 10.1719 16.5 10.0677 16.9688 9.85938C17.4479 9.64062 17.8802 9.375 18.2656 9.0625V11.1719C17.9115 11.4948 17.4688 11.7552 16.9375 11.9531C16.4062 12.1406 15.8125 12.2344 15.1562 12.2344C14.4062 12.2344 13.6979 12.1042 13.0312 11.8438C12.3646 11.5729 11.776 11.1979 11.2656 10.7188C10.7552 10.2292 10.3542 9.65104 10.0625 8.98438C9.77083 8.31771 9.625 7.57812 9.625 6.76562C9.625 5.95312 9.77083 5.21354 10.0625 4.54688C10.3542 3.88021 10.7552 3.30729 11.2656 2.82812C11.776 2.33854 12.3646 1.96354 13.0312 1.70312C13.6979 1.43229 14.4062 1.29688 15.1562 1.29688ZM23.8594 3.90625C24.6302 3.90625 25.3333 4.09375 25.9688 4.46875C26.6042 4.83333 27.1146 5.33333 27.5 5.96875C27.8958 6.59375 28.0938 7.29688 28.0938 8.07812C28.0938 8.85938 27.8958 9.5625 27.5 10.1875C27.1146 10.8125 26.6042 11.3125 25.9688 11.6875C25.3333 12.0521 24.6302 12.2344 23.8594 12.2344C23.099 12.2344 22.3958 12.0521 21.75 11.6875C21.1146 11.3125 20.6042 10.8125 20.2188 10.1875C19.8333 9.5625 19.6406 8.85938 19.6406 8.07812C19.6406 7.29688 19.8333 6.59375 20.2188 5.96875C20.6042 5.33333 21.1146 4.83333 21.75 4.46875C22.3958 4.09375 23.099 3.90625 23.8594 3.90625ZM23.8594 5.82812C23.4844 5.82812 23.1354 5.91667 22.8125 6.09375C22.4896 6.27083 22.2292 6.52604 22.0312 6.85938C21.8438 7.19271 21.75 7.59896 21.75 8.07812C21.75 8.55729 21.8438 8.96354 22.0312 9.29688C22.2292 9.63021 22.4896 9.88542 22.8125 10.0625C23.1354 10.2292 23.4844 10.3125 23.8594 10.3125C24.2344 10.3125 24.5833 10.2292 24.9062 10.0625C25.2292 9.88542 25.4896 9.63021 25.6875 9.29688C25.8854 8.96354 25.9844 8.55729 25.9844 8.07812C25.9844 7.59896 25.8854 7.19271 25.6875 6.85938C25.4896 6.52604 25.2292 6.27083 24.9062 6.09375C24.5833 5.91667 24.2344 5.82812 23.8594 5.82812ZM34.5938 4.10938V5.76562H32.5469V12H30.5625V5.76562H29.3594V4.10938H30.5625V3.40625C30.5625 2.80208 30.6875 2.28646 30.9375 1.85938C31.1979 1.42188 31.5365 1.08854 31.9531 0.859375C32.3698 0.630208 32.8281 0.515625 33.3281 0.515625C33.6615 0.515625 33.9531 0.552083 34.2031 0.625C34.4531 0.697917 34.6719 0.796875 34.8594 0.921875V2.57812C34.5156 2.36979 34.1198 2.27083 33.6719 2.28125C33.3594 2.29167 33.0938 2.39583 32.875 2.59375C32.6562 2.78125 32.5469 3.09375 32.5469 3.53125V4.10938H34.5938ZM40.8594 4.10938V5.76562H38.8125V12H36.8281V5.76562H35.625V4.10938H36.8281V3.40625C36.8281 2.80208 36.9531 2.28646 37.2031 1.85938C37.4635 1.42188 37.8021 1.08854 38.2188 0.859375C38.6354 0.630208 39.0938 0.515625 39.5938 0.515625C39.9271 0.515625 40.2188 0.552083 40.4688 0.625C40.7188 0.697917 40.9375 0.796875 41.125 0.921875V2.57812C40.7812 2.36979 40.3854 2.27083 39.9375 2.28125C39.625 2.29167 39.3594 2.39583 39.1406 2.59375C38.9219 2.78125 38.8125 3.09375 38.8125 3.53125V4.10938H40.8594ZM45.9531 3.90625C46.724 3.90625 47.3854 4.07292 47.9375 4.40625C48.5 4.73958 48.9271 5.20312 49.2188 5.79688C49.5208 6.38021 49.6719 7.05729 49.6719 7.82812V8.67188H43.9531C44.0573 9.20312 44.3177 9.63021 44.7344 9.95312C45.151 10.276 45.6615 10.4375 46.2656 10.4375C46.8385 10.4375 47.3594 10.3229 47.8281 10.0938C48.2969 9.86458 48.6719 9.63021 48.9531 9.39062L48.9375 11.2344C48.6875 11.4531 48.3125 11.6771 47.8125 11.9062C47.3229 12.125 46.7812 12.2344 46.1875 12.2344C45.4062 12.2344 44.6927 12.0573 44.0469 11.7031C43.4115 11.349 42.901 10.8646 42.5156 10.25C42.1406 9.63542 41.9531 8.93229 41.9531 8.14062C41.9531 7.36979 42.125 6.66667 42.4688 6.03125C42.8125 5.39583 43.2865 4.88542 43.8906 4.5C44.4948 4.10417 45.1823 3.90625 45.9531 3.90625ZM45.9062 5.64062C45.4167 5.64062 45.0052 5.79167 44.6719 6.09375C44.3385 6.39583 44.1094 6.80208 43.9844 7.3125H47.7656C47.724 6.75 47.5156 6.33333 47.1406 6.0625C46.7656 5.78125 46.3542 5.64062 45.9062 5.64062ZM54.9375 3.90625C55.7083 3.90625 56.3698 4.07292 56.9219 4.40625C57.4844 4.73958 57.9115 5.20312 58.2031 5.79688C58.5052 6.38021 58.6562 7.05729 58.6562 7.82812V8.67188H52.9375C53.0417 9.20312 53.3021 9.63021 53.7188 9.95312C54.1354 10.276 54.6458 10.4375 55.25 10.4375C55.8229 10.4375 56.3438 10.3229 56.8125 10.0938C57.2812 9.86458 57.6562 9.63021 57.9375 9.39062L57.9219 11.2344C57.6719 11.4531 57.2969 11.6771 56.7969 11.9062C56.3073 12.125 55.7656 12.2344 55.1719 12.2344C54.3906 12.2344 53.6771 12.0573 53.0312 11.7031C52.3958 11.349 51.8854 10.8646 51.5 10.25C51.125 9.63542 50.9375 8.93229 50.9375 8.14062C50.9375 7.36979 51.1094 6.66667 51.4531 6.03125C51.7969 5.39583 52.2708 4.88542 52.875 4.5C53.4792 4.10417 54.1667 3.90625 54.9375 3.90625ZM54.8906 5.64062C54.401 5.64062 53.9896 5.79167 53.6562 6.09375C53.3229 6.39583 53.0938 6.80208 52.9688 7.3125H56.75C56.7083 6.75 56.5 6.33333 56.125 6.0625C55.75 5.78125 55.3385 5.64062 54.8906 5.64062Z" fill="white"/>
</svg>
