<svg width="39" height="13" viewBox="0 0 39 13" fill="none" xmlns="http://www.w3.org/2000/svg">
<path d="M5.92188 12.1953C4.27604 12.1953 2.97396 11.6771 2.01562 10.6406C1.0625 9.59896 0.585938 8.17188 0.585938 6.35938C0.585938 4.55208 1.0651 3.13021 2.02344 2.09375C2.98177 1.05208 4.28125 0.53125 5.92188 0.53125C6.81771 0.53125 7.63021 0.708333 8.35938 1.0625C9.09375 1.41667 9.68229 1.91667 10.125 2.5625C10.5677 3.20833 10.8177 3.94531 10.875 4.77344H8.57812C8.46875 4.08073 8.16927 3.52604 7.67969 3.10938C7.19531 2.69271 6.60938 2.48438 5.92188 2.48438C5.03125 2.48438 4.32031 2.83333 3.78906 3.53125C3.25781 4.22917 2.99219 5.16927 2.99219 6.35156C2.99219 7.55469 3.25521 8.50521 3.78125 9.20312C4.30729 9.89583 5.02344 10.2422 5.92969 10.2422C6.6276 10.2422 7.21354 10.0495 7.6875 9.66406C8.16146 9.27865 8.46094 8.7526 8.58594 8.08594H10.8828C10.7526 9.34115 10.2396 10.3411 9.34375 11.0859C8.44792 11.8255 7.30729 12.1953 5.92188 12.1953ZM16.1016 12.1484C14.7943 12.1484 13.7604 11.7526 13 10.9609C12.2396 10.1693 11.8594 9.08073 11.8594 7.69531C11.8594 6.32552 12.2422 5.24219 13.0078 4.44531C13.7734 3.64844 14.8047 3.25 16.1016 3.25C17.4036 3.25 18.4349 3.64844 19.1953 4.44531C19.9609 5.23698 20.3438 6.32031 20.3438 7.69531C20.3438 9.08594 19.9635 10.1771 19.2031 10.9688C18.4479 11.7552 17.4141 12.1484 16.1016 12.1484ZM14.6797 9.6875C15.0234 10.1562 15.4974 10.3906 16.1016 10.3906C16.7057 10.3906 17.1771 10.1562 17.5156 9.6875C17.8542 9.21354 18.0234 8.54948 18.0234 7.69531C18.0234 6.85156 17.8516 6.19271 17.5078 5.71875C17.1693 5.23958 16.7005 5 16.1016 5C15.4974 5 15.0234 5.23958 14.6797 5.71875C14.3411 6.19271 14.1719 6.85156 14.1719 7.69531C14.1719 8.54948 14.3411 9.21354 14.6797 9.6875ZM22.1797 12V5.125H21.0156V3.39844H22.1797V2.63281C22.1797 1.80469 22.3932 1.20833 22.8203 0.84375C23.2526 0.479167 23.9661 0.296875 24.9609 0.296875C25.3151 0.296875 25.6667 0.322917 26.0156 0.375V1.96094C25.8229 1.92448 25.6146 1.90625 25.3906 1.90625C25.0469 1.90625 24.7995 1.97396 24.6484 2.10938C24.4974 2.24479 24.4193 2.46354 24.4141 2.76562V3.39844H26.0234V5.125H24.4609V12H22.1797ZM27.3438 12V3.39844H29.625V12H27.3438ZM28.4844 2.46094C28.1458 2.46094 27.8568 2.34635 27.6172 2.11719C27.3776 1.88802 27.2578 1.60417 27.2578 1.26562C27.2578 0.927083 27.3776 0.645833 27.6172 0.421875C27.8568 0.192708 28.1458 0.078125 28.4844 0.078125C28.8281 0.078125 29.1198 0.192708 29.3594 0.421875C29.599 0.645833 29.7188 0.927083 29.7188 1.26562C29.7188 1.60417 29.599 1.88802 29.3594 2.11719C29.1198 2.34635 28.8281 2.46094 28.4844 2.46094ZM34.7188 8.99219H34.6719L33.0234 12H30.6172L33.3359 7.71094L30.6406 3.39844H33.2109L34.7891 6.32812H34.8359L36.4062 3.39844H38.8828L36.1797 7.65625L38.8672 12H36.375L34.7188 8.99219Z" fill="white"/>
</svg>
