<svg width="289" height="70" viewBox="0 0 289 70" fill="none" xmlns="http://www.w3.org/2000/svg">
<line y1="68.9291" x2="288.007" y2="68.9291" stroke="#00FBF4" stroke-width="2"/>
<rect width="288" height="69" fill="url(#paint0_linear_684_238)" fill-opacity="0.1"/>
<path d="M31.3535 25.2637C29.3678 25.2637 27.7923 24.6061 26.627 23.291C25.4681 21.9759 24.8887 20.1953 24.8887 17.9492C24.8887 15.7227 25.4714 13.9486 26.6367 12.627C27.8086 11.3053 29.3809 10.6445 31.3535 10.6445C32.903 10.6445 34.2214 11.0775 35.3086 11.9434C36.4023 12.8027 37.0664 13.9355 37.3008 15.3418H35.1035C34.8757 14.5085 34.4199 13.8411 33.7363 13.3398C33.0592 12.8385 32.265 12.5879 31.3535 12.5879C30.071 12.5879 29.0456 13.0762 28.2773 14.0527C27.5156 15.0228 27.1348 16.3216 27.1348 17.9492C27.1348 19.5964 27.5156 20.9049 28.2773 21.875C29.0391 22.8385 30.0677 23.3203 31.3633 23.3203C32.3008 23.3203 33.0951 23.1022 33.7461 22.666C34.4036 22.2298 34.8561 21.6178 35.1035 20.8301H37.3008C36.9948 22.2298 36.321 23.3203 35.2793 24.1016C34.2441 24.8763 32.9355 25.2637 31.3535 25.2637ZM46.2695 25H40.4785V10.9082H46.25C47.4935 10.9082 48.4928 11.2305 49.248 11.875C50.0033 12.513 50.3809 13.3626 50.3809 14.4238C50.3809 15.1725 50.14 15.8431 49.6582 16.4355C49.1764 17.0215 48.584 17.373 47.8809 17.4902V17.5684C48.8379 17.679 49.6094 18.0501 50.1953 18.6816C50.7878 19.3066 51.084 20.0846 51.084 21.0156C51.084 22.2591 50.6576 23.2357 49.8047 23.9453C48.9518 24.6484 47.7734 25 46.2695 25ZM42.666 12.6953V16.9043H45.2539C46.2044 16.9043 46.9336 16.7155 47.4414 16.3379C47.9492 15.9603 48.2031 15.4232 48.2031 14.7266C48.2031 14.0755 47.985 13.5742 47.5488 13.2227C47.1191 12.8711 46.5072 12.6953 45.7129 12.6953H42.666ZM42.666 23.2129H45.8301C46.8132 23.2129 47.5618 23.0143 48.0762 22.6172C48.5905 22.2201 48.8477 21.6406 48.8477 20.8789C48.8477 20.1172 48.5807 19.5443 48.0469 19.1602C47.5195 18.7695 46.7383 18.5742 45.7031 18.5742H42.666V23.2129ZM62.1035 17.9004V12.7539H59.2324C58.3014 12.7539 57.5788 12.9785 57.0645 13.4277C56.5566 13.877 56.3027 14.5085 56.3027 15.3223C56.3027 16.1426 56.5566 16.7773 57.0645 17.2266C57.5788 17.6758 58.3014 17.9004 59.2324 17.9004H62.1035ZM59.5547 19.6973L55.8633 25H53.3535L57.2793 19.4141C56.3027 19.1602 55.5215 18.6686 54.9355 17.9395C54.3496 17.2038 54.0566 16.3281 54.0566 15.3125C54.0566 14.0039 54.4928 12.9427 55.3652 12.1289C56.2441 11.3151 57.3867 10.9082 58.793 10.9082H64.2812V25H62.1035V19.6973H59.5547ZM70.7109 18.7109V16.8848H72.6055C73.4128 16.8848 74.0671 16.6699 74.5684 16.2402C75.0762 15.8105 75.3301 15.2572 75.3301 14.5801C75.3301 13.903 75.0924 13.3691 74.6172 12.9785C74.1484 12.5879 73.5104 12.3926 72.7031 12.3926C71.8828 12.3926 71.2188 12.5944 70.7109 12.998C70.2096 13.3952 69.9264 13.9453 69.8613 14.6484H67.791C67.8626 13.3854 68.3444 12.3893 69.2363 11.6602C70.1283 10.931 71.3066 10.5664 72.7715 10.5664C74.1582 10.5664 75.291 10.9212 76.1699 11.6309C77.0488 12.334 77.4883 13.2422 77.4883 14.3555C77.4883 15.1432 77.2441 15.8366 76.7559 16.4355C76.2741 17.028 75.6426 17.4186 74.8613 17.6074V17.6855C75.8053 17.8027 76.5508 18.1738 77.0977 18.7988C77.6445 19.4238 77.918 20.2148 77.918 21.1719C77.918 22.3568 77.4232 23.3496 76.4336 24.1504C75.444 24.9447 74.2103 25.3418 72.7324 25.3418C71.2025 25.3418 69.9525 24.9642 68.9824 24.209C68.0124 23.4538 67.4948 22.4544 67.4297 21.2109H69.5391C69.6042 21.901 69.9232 22.4544 70.4961 22.8711C71.0755 23.2812 71.8177 23.4863 72.7227 23.4863C73.6016 23.4863 74.3112 23.2617 74.8516 22.8125C75.3984 22.3633 75.6719 21.7806 75.6719 21.0645C75.6719 20.3288 75.4049 19.7526 74.8711 19.3359C74.3438 18.9193 73.6081 18.7109 72.6641 18.7109H70.7109ZM90.1582 25L88.8691 21.1914H83.498L82.209 25H79.9336L85.0215 10.9082H87.3848L92.4727 25H90.1582ZM86.1543 13.252L84.0547 19.4336H88.3125L86.2129 13.252H86.1543ZM99.2832 25H97.0957V12.793H92.7012V10.9082H103.668V12.793H99.2832V25ZM106.748 25V10.9082H108.936V15.957H112.119C113.506 15.957 114.639 16.377 115.518 17.2168C116.396 18.0566 116.836 19.1439 116.836 20.4785C116.836 21.8132 116.403 22.9004 115.537 23.7402C114.678 24.5801 113.561 25 112.188 25H106.748ZM108.936 23.1445H111.611C112.562 23.1445 113.294 22.9134 113.809 22.4512C114.329 21.9889 114.59 21.3314 114.59 20.4785C114.59 19.6191 114.329 18.9583 113.809 18.4961C113.288 18.0339 112.555 17.8027 111.611 17.8027H108.936V23.1445ZM125.893 25.2637C123.907 25.2637 122.331 24.6061 121.166 23.291C120.007 21.9759 119.428 20.1953 119.428 17.9492C119.428 15.7227 120.01 13.9486 121.176 12.627C122.348 11.3053 123.92 10.6445 125.893 10.6445C127.442 10.6445 128.76 11.0775 129.848 11.9434C130.941 12.8027 131.605 13.9355 131.84 15.3418H129.643C129.415 14.5085 128.959 13.8411 128.275 13.3398C127.598 12.8385 126.804 12.5879 125.893 12.5879C124.61 12.5879 123.585 13.0762 122.816 14.0527C122.055 15.0228 121.674 16.3216 121.674 17.9492C121.674 19.5964 122.055 20.9049 122.816 21.875C123.578 22.8385 124.607 23.3203 125.902 23.3203C126.84 23.3203 127.634 23.1022 128.285 22.666C128.943 22.2298 129.395 21.6178 129.643 20.8301H131.84C131.534 22.2298 130.86 23.3203 129.818 24.1016C128.783 24.8763 127.475 25.2637 125.893 25.2637ZM142.908 17.9004V12.7539H140.037C139.106 12.7539 138.383 12.9785 137.869 13.4277C137.361 13.877 137.107 14.5085 137.107 15.3223C137.107 16.1426 137.361 16.7773 137.869 17.2266C138.383 17.6758 139.106 17.9004 140.037 17.9004H142.908ZM140.359 19.6973L136.668 25H134.158L138.084 19.4141C137.107 19.1602 136.326 18.6686 135.74 17.9395C135.154 17.2038 134.861 16.3281 134.861 15.3125C134.861 14.0039 135.298 12.9427 136.17 12.1289C137.049 11.3151 138.191 10.9082 139.598 10.9082H145.086V25H142.908V19.6973H140.359ZM160.475 25.2637C158.489 25.2637 156.913 24.6061 155.748 23.291C154.589 21.9759 154.01 20.1953 154.01 17.9492C154.01 15.7227 154.592 13.9486 155.758 12.627C156.93 11.3053 158.502 10.6445 160.475 10.6445C162.024 10.6445 163.342 11.0775 164.43 11.9434C165.523 12.8027 166.188 13.9355 166.422 15.3418H164.225C163.997 14.5085 163.541 13.8411 162.857 13.3398C162.18 12.8385 161.386 12.5879 160.475 12.5879C159.192 12.5879 158.167 13.0762 157.398 14.0527C156.637 15.0228 156.256 16.3216 156.256 17.9492C156.256 19.5964 156.637 20.9049 157.398 21.875C158.16 22.8385 159.189 23.3203 160.484 23.3203C161.422 23.3203 162.216 23.1022 162.867 22.666C163.525 22.2298 163.977 21.6178 164.225 20.8301H166.422C166.116 22.2298 165.442 23.3203 164.4 24.1016C163.365 24.8763 162.057 25.2637 160.475 25.2637ZM37.0078 55H34.8203V48.7598H27.584V55H25.3965V40.9082H27.584V46.8652H34.8203V40.9082H37.0078V55ZM50.0488 55L48.7598 51.1914H43.3887L42.0996 55H39.8242L44.9121 40.9082H47.2754L52.3633 55H50.0488ZM46.0449 43.252L43.9453 49.4336H48.2031L46.1035 43.252H46.0449ZM69.3691 40.9082V55H67.3672V44.6289H67.2988L63.0508 54.8926H61.4297L57.1719 44.6289H57.1035V55H55.1113V40.9082H57.6406L62.2012 52.0312H62.2793L66.8301 40.9082H69.3691ZM82.7324 55V44.3945H82.5859L75.4082 55H73.2793V40.9082H75.4473V51.543H75.5938L82.7715 40.9082H84.9004V55H82.7324Z" fill="white"/>
<g clip-path="url(#clip0_684_238)">
<path d="M264 52.0007H220V25H264V52.0007ZM221.803 50.2992H262.197V26.7042H221.803V50.2992Z" fill="#00FBF4"/>
<path d="M242 39.4643L225.038 30.9216L225.887 29.4215L242 37.5358L258.114 29.4215L258.962 30.9216L242 39.4643Z" fill="#00FBF4"/>
</g>
<defs>
<linearGradient id="paint0_linear_684_238" x1="144" y1="0" x2="144" y2="69" gradientUnits="userSpaceOnUse">
<stop offset="0.192708" stop-color="#00FBF4" stop-opacity="0"/>
<stop offset="0.807292" stop-color="#00FBF4"/>
</linearGradient>
<clipPath id="clip0_684_238">
<rect width="44" height="27" fill="white" transform="translate(220 25)"/>
</clipPath>
</defs>
</svg>
