<svg width="31" height="14" viewBox="0 0 31 14" fill="none" xmlns="http://www.w3.org/2000/svg">
<path d="M7.80713 11.1904V13H0.0541992V1.02197H7.80713V2.83154H2.1958V6.06885H7.5V7.77051H2.1958V11.1904H7.80713ZM11.0534 13H8.9865V1.02197H10.8459L16.7892 9.41406H16.8639V1.02197H18.9225V13H17.0798L11.1281 4.59961H11.0534V13ZM30.8431 8.00293C30.8431 9.62988 30.381 10.9027 29.4569 11.8213C28.5383 12.7399 27.26 13.1992 25.6219 13.1992C23.8732 13.1992 22.4898 12.6431 21.4715 11.5308C20.4588 10.4129 19.9525 8.89111 19.9525 6.96533C19.9525 5.06722 20.4561 3.57031 21.4632 2.47461C22.4759 1.37337 23.8483 0.822754 25.5804 0.822754C26.9418 0.822754 28.0956 1.19076 29.0419 1.92676C29.9881 2.66276 30.5581 3.63118 30.7518 4.83203H28.577C28.3723 4.14583 28.007 3.60905 27.4813 3.22168C26.9556 2.83431 26.3247 2.64062 25.5887 2.64062C24.5096 2.64062 23.6657 3.01969 23.057 3.77783C22.4483 4.53597 22.1439 5.59017 22.1439 6.94043C22.1439 8.31836 22.4566 9.40299 23.0819 10.1943C23.7128 10.9857 24.5677 11.3813 25.6468 11.3813C26.5489 11.3813 27.2849 11.1213 27.8548 10.6011C28.4304 10.0809 28.7264 9.40023 28.743 8.55908L28.7513 8.35986H25.8627V6.72461H30.8431V8.00293Z" fill="#FEFEFE"/>
</svg>
