<svg width="29" height="23" viewBox="0 0 29 23" fill="none" xmlns="http://www.w3.org/2000/svg">
<rect x="3.02075" y="5.37671" width="21.9623" height="12.0976" rx="2" fill="#FEFEFE"/>
<path d="M12.4341 0.0503035C10.5664 0.221826 8.33246 0.858909 6.69901 1.68222C5.37784 2.3536 3.86451 3.45135 2.96371 4.40207C1.42635 6.02418 0.459493 7.89133 0.0811581 9.9643C-0.0389481 10.6308 -0.0209322 12.4734 0.111185 13.1742C0.729732 16.4331 2.93969 19.2755 6.27864 21.0937C8.00217 22.0297 10.02 22.6619 12.0798 22.9118C13.0646 23.0294 15.1065 23.0294 16.0913 22.9118C18.5595 22.6128 20.9857 21.7503 22.9134 20.4909C25.6698 18.6874 27.5014 16.095 28.0599 13.2134C28.21 12.4342 28.21 10.5818 28.0599 9.80258C27.5615 7.23464 26.0842 4.92644 23.8082 3.15731C21.5862 1.43228 18.6376 0.310037 15.6349 0.0454028C14.9503 -0.0183055 13.1187 -0.0134049 12.4341 0.0503035ZM23.1536 5.91637C23.1536 5.94087 23.0455 6.03398 22.9194 6.1271C22.4509 6.45054 19.07 8.99397 18.8598 9.17529C18.7517 9.26841 16.9261 10.6553 15.4548 11.7579C14.7521 12.2872 14.4519 12.4391 14.0976 12.4391C13.6291 12.4391 13.6111 12.4293 11.1189 10.5573C10.6205 10.1848 9.97191 9.68496 9.67164 9.45463C8.70479 8.69503 5.78621 6.49955 5.25173 6.1271C5.12562 6.03398 5.01753 5.94087 5.01753 5.91637C5.01753 5.89187 8.62672 5.87226 14.0855 5.87226C19.5444 5.87226 23.1536 5.89187 23.1536 5.91637ZM6.99928 8.57742C7.90608 9.25371 8.98704 10.0721 9.4014 10.3907L10.1461 10.9689L9.91186 11.1601C9.77974 11.263 8.6027 12.15 7.29954 13.1252C5.99639 14.1053 4.71125 15.0757 4.44702 15.2815C4.18279 15.4922 3.8525 15.7422 3.71437 15.8451L3.45614 16.0264V11.2679C3.45614 6.39663 3.45614 6.41623 3.68435 6.20551C3.76842 6.1271 3.82847 6.1663 4.56112 6.72988C4.9935 7.06312 6.09248 7.89623 6.99928 8.57742ZM24.6069 6.36723C24.7089 6.52405 24.715 6.85729 24.715 11.2826V16.0264L24.3306 15.7422C23.4538 15.0855 18.8898 11.6109 18.4995 11.3022L18.0791 10.964L18.6556 10.5132C18.9679 10.2632 20.0909 9.42033 21.1418 8.64113C22.1987 7.85702 23.3578 6.98471 23.7241 6.69557C24.0844 6.40643 24.4147 6.1761 24.4447 6.181C24.4807 6.19081 24.5528 6.27412 24.6069 6.36723ZM11.8936 12.248C13.1007 13.1693 13.2748 13.2477 14.1156 13.2477C14.9743 13.2477 15.1425 13.1742 16.3195 12.2725C16.842 11.8755 17.2924 11.557 17.3224 11.5668C17.3584 11.5717 17.7968 11.905 18.3013 12.297C18.8057 12.6891 20.0068 13.6006 20.9616 14.321C23.5259 16.2518 24.3246 16.8693 24.3246 16.9232C24.3246 16.9477 24.2285 17.0114 24.1144 17.0604C23.9162 17.1388 23.3397 17.1437 14.0255 17.1339C4.22482 17.1192 4.14676 17.1192 3.95459 17.0212L3.76242 16.9232L4.70525 16.2028C5.22171 15.8108 6.5669 14.7914 7.68989 13.9436C8.81288 13.0909 9.98993 12.199 10.3022 11.954C10.6145 11.7138 10.8847 11.5129 10.9027 11.5129C10.9207 11.5129 11.3651 11.8412 11.8936 12.248Z" fill="#363637"/>
</svg>
