<svg width="78" height="16" viewBox="0 0 78 16" fill="none" xmlns="http://www.w3.org/2000/svg">
<path d="M8.07564 7.65625V10.0977H2.93892V15H0.224075V1.91406H9.14986V4.35547H2.93892V7.65625H8.07564Z" fill="#00FBF4"/>
<path d="M19.2663 1.62109C20.0866 1.62109 20.7962 1.73828 21.3952 1.97266C21.9941 2.19401 22.515 2.5 22.9577 2.89062V5.625C22.6452 5.39062 22.3196 5.16276 21.9811 4.94141C21.6426 4.72005 21.2585 4.53776 20.8288 4.39453C20.4121 4.2513 19.9173 4.17969 19.3444 4.17969C18.5631 4.17969 17.8535 4.36849 17.2155 4.74609C16.5775 5.1237 16.0696 5.63151 15.692 6.26953C15.3144 6.90755 15.1256 7.63672 15.1256 8.45703C15.1256 9.26432 15.3144 9.99349 15.692 10.6445C16.0696 11.2826 16.5775 11.7904 17.2155 12.168C17.8535 12.5326 18.5631 12.7148 19.3444 12.7148C20.2168 12.7148 20.946 12.5846 21.5319 12.3242C22.1308 12.0508 22.6712 11.7188 23.153 11.3281V13.9648C22.7103 14.3685 22.1569 14.694 21.4928 14.9414C20.8288 15.1758 20.0866 15.293 19.2663 15.293C18.3288 15.293 17.4433 15.1302 16.61 14.8047C15.7767 14.4661 15.041 13.9974 14.403 13.3984C13.765 12.7865 13.2637 12.0638 12.8991 11.2305C12.5345 10.3971 12.3522 9.47266 12.3522 8.45703C12.3522 7.44141 12.5345 6.51693 12.8991 5.68359C13.2637 4.85026 13.765 4.13411 14.403 3.53516C15.041 2.92318 15.7767 2.45443 16.61 2.12891C17.4433 1.79036 18.3288 1.62109 19.2663 1.62109ZM30.9452 4.88281C31.9087 4.88281 32.7876 5.11719 33.5819 5.58594C34.3762 6.04167 35.0142 6.66667 35.496 7.46094C35.9907 8.24219 36.2381 9.12109 36.2381 10.0977C36.2381 11.0742 35.9907 11.9531 35.496 12.7344C35.0142 13.5156 34.3762 14.1406 33.5819 14.6094C32.7876 15.0651 31.9087 15.293 30.9452 15.293C29.9946 15.293 29.1157 15.0651 28.3085 14.6094C27.5142 14.1406 26.8762 13.5156 26.3944 12.7344C25.9126 11.9531 25.6717 11.0742 25.6717 10.0977C25.6717 9.12109 25.9126 8.24219 26.3944 7.46094C26.8762 6.66667 27.5142 6.04167 28.3085 5.58594C29.1157 5.11719 29.9946 4.88281 30.9452 4.88281ZM30.9452 7.28516C30.4764 7.28516 30.0402 7.39583 29.6366 7.61719C29.2329 7.83854 28.9074 8.15755 28.66 8.57422C28.4256 8.99089 28.3085 9.4987 28.3085 10.0977C28.3085 10.6966 28.4256 11.2044 28.66 11.6211C28.9074 12.0378 29.2329 12.3568 29.6366 12.5781C30.0402 12.7865 30.4764 12.8906 30.9452 12.8906C31.4139 12.8906 31.8501 12.7865 32.2538 12.5781C32.6574 12.3568 32.9829 12.0378 33.2303 11.6211C33.4777 11.2044 33.6014 10.6966 33.6014 10.0977C33.6014 9.4987 33.4777 8.99089 33.2303 8.57422C32.9829 8.15755 32.6574 7.83854 32.2538 7.61719C31.8501 7.39583 31.4139 7.28516 30.9452 7.28516ZM45.1631 5.13672V7.20703H42.6045V15H40.1241V7.20703H38.6202V5.13672H40.1241V4.25781C40.1241 3.5026 40.2803 2.85807 40.5928 2.32422C40.9183 1.77734 41.3415 1.36068 41.8624 1.07422C42.3832 0.78776 42.9561 0.644531 43.5811 0.644531C43.9978 0.644531 44.3624 0.690104 44.6749 0.78125C44.9874 0.872396 45.2608 0.996094 45.4952 1.15234V3.22266C45.0655 2.96224 44.5707 2.83854 44.0108 2.85156C43.6202 2.86458 43.2881 2.99479 43.0147 3.24219C42.7413 3.47656 42.6045 3.86719 42.6045 4.41406V5.13672H45.1631ZM53.7952 5.13672V7.20703H51.2366V15H48.7561V7.20703H47.2522V5.13672H48.7561V4.25781C48.7561 3.5026 48.9124 2.85807 49.2249 2.32422C49.5504 1.77734 49.9736 1.36068 50.4944 1.07422C51.0152 0.78776 51.5881 0.644531 52.2131 0.644531C52.6298 0.644531 52.9944 0.690104 53.3069 0.78125C53.6194 0.872396 53.8928 0.996094 54.1272 1.15234V3.22266C53.6975 2.96224 53.2027 2.83854 52.6428 2.85156C52.2522 2.86458 51.9202 2.99479 51.6467 3.24219C51.3733 3.47656 51.2366 3.86719 51.2366 4.41406V5.13672H53.7952ZM60.9624 4.88281C61.9259 4.88281 62.7527 5.09115 63.4428 5.50781C64.146 5.92448 64.6798 6.50391 65.0444 7.24609C65.422 7.97526 65.6108 8.82161 65.6108 9.78516V10.8398H58.4624C58.5926 11.5039 58.9181 12.0378 59.4389 12.4414C59.9598 12.8451 60.5978 13.0469 61.353 13.0469C62.0691 13.0469 62.7202 12.9036 63.3061 12.6172C63.892 12.3307 64.3608 12.0378 64.7124 11.7383L64.6928 14.043C64.3803 14.3164 63.9116 14.5964 63.2866 14.8828C62.6746 15.1562 61.9975 15.293 61.2553 15.293C60.2788 15.293 59.3868 15.0716 58.5795 14.6289C57.7853 14.1862 57.1473 13.5807 56.6655 12.8125C56.1967 12.0443 55.9624 11.1654 55.9624 10.1758C55.9624 9.21224 56.1772 8.33333 56.6069 7.53906C57.0366 6.74479 57.629 6.10677 58.3842 5.625C59.1394 5.13021 59.9988 4.88281 60.9624 4.88281ZM60.9038 7.05078C60.2918 7.05078 59.7775 7.23958 59.3608 7.61719C58.9441 7.99479 58.6577 8.5026 58.5014 9.14062H63.228C63.1759 8.4375 62.9155 7.91667 62.4467 7.57812C61.978 7.22656 61.4637 7.05078 60.9038 7.05078ZM72.9928 4.88281C73.9564 4.88281 74.7832 5.09115 75.4733 5.50781C76.1764 5.92448 76.7103 6.50391 77.0749 7.24609C77.4525 7.97526 77.6413 8.82161 77.6413 9.78516V10.8398H70.4928C70.623 11.5039 70.9486 12.0378 71.4694 12.4414C71.9902 12.8451 72.6282 13.0469 73.3835 13.0469C74.0996 13.0469 74.7506 12.9036 75.3366 12.6172C75.9225 12.3307 76.3913 12.0378 76.7428 11.7383L76.7233 14.043C76.4108 14.3164 75.942 14.5964 75.317 14.8828C74.7051 15.1562 74.028 15.293 73.2858 15.293C72.3092 15.293 71.4173 15.0716 70.61 14.6289C69.8157 14.1862 69.1777 13.5807 68.696 12.8125C68.2272 12.0443 67.9928 11.1654 67.9928 10.1758C67.9928 9.21224 68.2077 8.33333 68.6374 7.53906C69.067 6.74479 69.6595 6.10677 70.4147 5.625C71.1699 5.13021 72.0293 4.88281 72.9928 4.88281ZM72.9342 7.05078C72.3223 7.05078 71.8079 7.23958 71.3913 7.61719C70.9746 7.99479 70.6881 8.5026 70.5319 9.14062H75.2585C75.2064 8.4375 74.946 7.91667 74.4772 7.57812C74.0085 7.22656 73.4941 7.05078 72.9342 7.05078Z" fill="#FEFEFE"/>
</svg>
