<svg width="55" height="13" viewBox="0 0 55 13" fill="none" xmlns="http://www.w3.org/2000/svg">
<path d="M36.5044 3.436L36.3278 3.42429C35.0132 4.56616 34.79 6.90041 35.8324 8.65777C36.8519 10.363 38.6979 10.9133 40.0211 9.89421C36.525 8.27232 39.6563 4.22248 36.5044 3.436Z" fill="#00FBF4"/>
<path d="M40.2174 9.59805L40.4004 9.62537C41.7138 8.48409 41.9361 6.14879 40.8948 4.39236C39.8756 2.68594 38.0282 2.13633 36.7049 3.15612C40.0952 4.22517 37.2129 8.35501 40.2174 9.59805Z" fill="#00FBF4"/>
<path d="M26.5044 3.43624L26.3278 3.42454C25.0132 4.56641 24.79 6.90066 25.8324 8.65801C26.8519 10.3633 28.6979 10.9135 30.0211 9.89445C26.5249 8.27256 29.6563 4.22272 26.5044 3.43624Z" fill="#00FBF4"/>
<path d="M30.2172 9.59805L30.4002 9.62537C31.7136 8.48408 31.9358 6.14879 30.8945 4.39236C29.8754 2.68594 28.028 2.13633 26.7046 3.15612C30.095 4.22517 27.2126 8.35501 30.2172 9.59805Z" fill="#00FBF4"/>
<path d="M15.5044 3.43624L15.3278 3.42454C14.0132 4.56641 13.79 6.90066 14.8324 8.65801C15.8519 10.3633 17.6979 10.9135 19.0211 9.89445C15.525 8.27256 18.6563 4.22272 15.5044 3.43624Z" fill="#00FBF4"/>
<path d="M19.2172 9.59805L19.4002 9.62537C20.7136 8.48408 20.9358 6.14879 19.8945 4.39236C18.8754 2.68594 17.0279 2.13633 15.7046 3.15612C19.095 4.22517 16.2126 8.35501 19.2172 9.59805Z" fill="#00FBF4"/>
<path d="M5.50427 3.43624L5.32762 3.42453C4.01303 4.56642 3.78979 6.90067 4.83216 8.65803C5.85168 10.3633 7.69763 10.9135 9.02087 9.89445C5.52475 8.27257 8.6561 4.2227 5.50427 3.43624Z" fill="#00FBF4"/>
<path d="M9.21696 9.59805L9.39991 9.62537C10.7133 8.48409 10.9356 6.14879 9.8943 4.39236C8.87515 2.68594 7.02771 2.13633 5.70437 3.15612C9.09474 4.22517 6.21239 8.35501 9.21696 9.59805Z" fill="#00FBF4"/>
<path d="M46.5042 3.436L46.3275 3.42429C45.0129 4.56616 44.7897 6.90041 45.8321 8.65777C46.8517 10.363 48.6976 10.9133 50.0209 9.89421C46.5247 8.27232 49.656 4.22248 46.5042 3.436Z" fill="#DADADA"/>
<path d="M50.2172 9.59805L50.4002 9.62537C51.7136 8.48409 51.9358 6.14879 50.8945 4.39236C49.8754 2.68594 48.028 2.13633 46.7046 3.15612C50.095 4.22517 47.2126 8.35501 50.2172 9.59805Z" fill="#DADADA"/>
</svg>
