<svg width="104" height="19" viewBox="0 0 104 19" fill="none" xmlns="http://www.w3.org/2000/svg">
<path d="M69.8242 4.76104L69.54 4.72968C67.5664 6.35885 67.4767 9.87917 69.347 12.6227C71.1748 15.2856 74.1933 16.2618 76.1949 14.8194C70.4117 12.092 74.9604 6.19587 69.8242 4.76104Z" fill="#DADADA"/>
<path d="M76.5547 14.2558L76.8507 14.3113C78.822 12.6832 78.91 9.16192 77.042 6.42036C75.2152 3.75627 72.1952 2.78115 70.1941 4.22437C75.7431 6.10542 71.6032 12.1408 76.5547 14.2558Z" fill="#DADADA"/>
<path d="M48.8242 4.76107L48.54 4.72971C46.5664 6.35888 46.4767 9.87919 48.347 12.6228C50.1748 15.2857 53.1933 16.2618 55.1949 14.8194C49.4116 12.092 53.9604 6.1959 48.8242 4.76107Z" fill="#DADADA"/>
<path d="M55.5547 14.2558L55.8506 14.3113C57.822 12.6832 57.91 9.16192 56.042 6.42036C54.2151 3.75627 51.1952 2.78115 49.194 4.22437C54.7431 6.10542 50.6032 12.1408 55.5547 14.2558Z" fill="#DADADA"/>
<path d="M27.8242 4.76107L27.54 4.72971C25.5664 6.35888 25.4767 9.87919 27.347 12.6228C29.1749 15.2857 32.1933 16.2618 34.1949 14.8194C28.4117 12.092 32.9604 6.1959 27.8242 4.76107Z" fill="#DADADA"/>
<path d="M34.5547 14.2558L34.8506 14.3113C36.8219 12.6832 36.91 9.16191 35.042 6.42036C33.2151 3.75626 30.1952 2.78114 28.194 4.22437C33.7431 6.10542 29.6032 12.1408 34.5547 14.2558Z" fill="#DADADA"/>
<path d="M6.82419 4.76101L6.54002 4.72965C4.56637 6.35882 4.47669 9.87913 6.34705 12.6227C8.17486 15.2856 11.1933 16.2618 13.1949 14.8194C7.41166 12.092 11.9604 6.19584 6.82419 4.76101Z" fill="#DADADA"/>
<path d="M13.5547 14.2558L13.8506 14.3113C15.822 12.6832 15.91 9.16188 14.042 6.42033C12.2151 3.75623 9.19517 2.78112 7.19401 4.22434C12.7431 6.10539 8.60316 12.1408 13.5547 14.2558Z" fill="#DADADA"/>
<path d="M90.8242 4.76107L90.54 4.72971C88.5664 6.35888 88.4767 9.8792 90.347 12.6228C92.1748 15.2857 95.1933 16.2618 97.1949 14.8194C91.4117 12.092 95.9604 6.1959 90.8242 4.76107Z" fill="#DADADA"/>
<path d="M97.5547 14.2558L97.8506 14.3113C99.8219 12.6832 99.91 9.16192 98.042 6.42036C96.2151 3.75627 93.1952 2.78115 91.194 4.22437C96.743 6.10542 92.6031 12.1408 97.5547 14.2558Z" fill="#DADADA"/>
</svg>
