<svg width="52" height="11" viewBox="0 0 52 11" fill="none" xmlns="http://www.w3.org/2000/svg">
<path d="M33.7409 2.42554L33.5574 2.40485C32.287 3.4501 32.2367 5.71604 33.45 7.48544C34.6356 9.20281 36.5861 9.83652 37.875 8.91157C34.136 7.14566 37.0595 3.35824 33.7409 2.42554Z" fill="#DADADA"/>
<path d="M38.1086 8.5447L38.2998 8.58095C39.5688 7.53642 39.6179 5.26986 38.4062 3.50179C37.2212 1.78365 35.2697 1.15062 33.9811 2.07611C37.5671 3.29677 34.9079 7.17452 38.1086 8.5447Z" fill="#DADADA"/>
<path d="M23.7404 2.42554L23.5569 2.40485C22.2865 3.4501 22.2362 5.71604 23.4495 7.48544C24.6351 9.20281 26.5856 9.83652 27.8745 8.91157C24.1355 7.14566 27.059 3.35824 23.7404 2.42554Z" fill="#00FBF4"/>
<path d="M28.1081 8.54482L28.2993 8.58107C29.5683 7.53654 29.6175 5.26999 28.4057 3.50191C27.2207 1.78377 25.2693 1.15074 23.9806 2.07623C27.5666 3.29689 24.9074 7.17465 28.1081 8.54482Z" fill="#00FBF4"/>
<path d="M13.7404 2.42554L13.5569 2.40485C12.2865 3.4501 12.2362 5.71604 13.4495 7.48544C14.6351 9.20281 16.5856 9.83652 17.8745 8.91157C14.1355 7.14566 17.059 3.35824 13.7404 2.42554Z" fill="#00FBF4"/>
<path d="M18.1081 8.54482L18.2993 8.58107C19.5683 7.53654 19.6175 5.26999 18.4057 3.50191C17.2207 1.78377 15.2693 1.15074 13.9806 2.07623C17.5666 3.29689 14.9074 7.17465 18.1081 8.54482Z" fill="#00FBF4"/>
<path d="M3.74032 2.42566L3.55682 2.40497C2.28635 3.45022 2.23608 5.71616 3.44935 7.48556C4.63498 9.20293 6.5855 9.83664 7.87443 8.91169C4.13541 7.14578 7.05888 3.35836 3.74032 2.42566Z" fill="#00FBF4"/>
<path d="M8.10802 8.54483L8.29918 8.58107C9.56814 7.53654 9.61733 5.26999 8.40561 3.50191C7.22062 1.78377 5.26914 1.15074 3.98051 2.07623C7.56648 3.29689 4.90726 7.17465 8.10802 8.54483Z" fill="#00FBF4"/>
<path d="M43.7406 2.42554L43.5571 2.40485C42.2866 3.4501 42.2363 5.71604 43.4496 7.48544C44.6352 9.20281 46.5857 9.83652 47.8747 8.91157C44.1357 7.14566 47.0591 3.35824 43.7406 2.42554Z" fill="#DADADA"/>
<path d="M48.1082 8.5447L48.2994 8.58095C49.5683 7.53642 49.6175 5.26986 48.4058 3.50179C47.2208 1.78365 45.2693 1.15062 43.9807 2.07611C47.5667 3.29677 44.9074 7.17452 48.1082 8.5447Z" fill="#DADADA"/>
</svg>
