<svg width="57" height="13" viewBox="0 0 57 13" fill="none" xmlns="http://www.w3.org/2000/svg">
<path d="M10.7344 12H8.375V7.25H3.29688V12H0.9375V0.726562H3.29688V5.30469H8.375V0.726562H10.7344V12ZM13.7188 2.10156C14.6979 1.05469 16.0234 0.53125 17.6953 0.53125C19.3672 0.53125 20.6901 1.05469 21.6641 2.10156C22.6432 3.14844 23.1328 4.57031 23.1328 6.36719C23.1328 8.15885 22.6432 9.57812 21.6641 10.625C20.6849 11.6719 19.362 12.1953 17.6953 12.1953C16.0234 12.1953 14.6979 11.6719 13.7188 10.625C12.7448 9.57812 12.2578 8.15885 12.2578 6.36719C12.2578 4.57031 12.7448 3.14844 13.7188 2.10156ZM19.8984 3.54688C19.3516 2.84896 18.6172 2.5 17.6953 2.5C16.7734 2.5 16.0365 2.84896 15.4844 3.54688C14.9375 4.24479 14.6641 5.1849 14.6641 6.36719C14.6641 7.54427 14.9375 8.48177 15.4844 9.17969C16.0312 9.8724 16.7682 10.2188 17.6953 10.2188C18.6172 10.2188 19.3516 9.8724 19.8984 9.17969C20.4453 8.48177 20.7188 7.54427 20.7188 6.36719C20.7188 5.1849 20.4453 4.24479 19.8984 3.54688ZM29.125 12H26.7656V2.67188H23.4688V0.726562H32.4297V2.67188H29.125V12ZM36.0938 12H33.7344V0.726562H41.1172V2.67188H36.0938V5.69531H40.6797V7.5625H36.0938V12ZM44.875 12H42.5156V0.726562H44.875V12ZM46.1484 12L49.7266 6.35156V6.28906L46.1719 0.726562H48.9453L51.3359 4.78906H51.3984L53.8125 0.726562H56.4453L52.7578 6.33594V6.39062L56.3984 12H53.7109L51.2422 8.05469H51.1797L48.6953 12H46.1484Z" fill="white"/>
</svg>
