<svg width="343" height="59" viewBox="0 0 343 59" fill="none" xmlns="http://www.w3.org/2000/svg">
<line y1="57.9291" x2="343" y2="57.9291" stroke="#00FBF4" stroke-width="2"/>
<rect width="343" height="59" fill="url(#paint0_linear_684_247)" fill-opacity="0.1"/>
<path d="M104.48 19.3418C102.599 19.3418 101.085 18.7559 99.9395 17.584C98.8001 16.4056 98.1621 14.7975 98.0254 12.7598H95.623V19H93.4355V4.9082H95.623V10.8652H98.0449C98.2337 8.9056 98.8978 7.36589 100.037 6.24609C101.176 5.1263 102.658 4.56641 104.48 4.56641C106.473 4.56641 108.045 5.23047 109.197 6.55859C110.356 7.88021 110.936 9.67708 110.936 11.9492C110.936 14.2214 110.359 16.0215 109.207 17.3496C108.055 18.6777 106.479 19.3418 104.48 19.3418ZM107.557 7.97461C106.801 6.99154 105.773 6.5 104.471 6.5C103.169 6.5 102.133 6.99154 101.365 7.97461C100.604 8.95768 100.223 10.2826 100.223 11.9492C100.223 13.6159 100.6 14.944 101.355 15.9336C102.117 16.9167 103.156 17.4082 104.471 17.4082C105.773 17.4082 106.801 16.9167 107.557 15.9336C108.318 14.944 108.699 13.6159 108.699 11.9492C108.699 10.276 108.318 8.95117 107.557 7.97461ZM114.24 4.9082H119.758C121.125 4.9082 122.242 5.33789 123.107 6.19727C123.973 7.05664 124.406 8.16992 124.406 9.53711C124.406 10.9108 123.967 12.0306 123.088 12.8965C122.209 13.7559 121.076 14.1855 119.689 14.1855H116.428V19H114.24V4.9082ZM116.428 6.75391V12.3496H119.182C120.132 12.3496 120.868 12.1055 121.389 11.6172C121.91 11.1224 122.17 10.4323 122.17 9.54688C122.17 8.65495 121.91 7.9681 121.389 7.48633C120.868 6.99805 120.132 6.75391 119.182 6.75391H116.428ZM137.037 19V8.39453H136.891L129.713 19H127.584V4.9082H129.752V15.543H129.898L137.076 4.9082H139.205V19H137.037ZM146.436 13.5508C146.383 14.4232 146.289 15.1296 146.152 15.6699C146.016 16.2038 145.788 16.6562 145.469 17.0273V17.1055H151.914V6.79297H146.865L146.436 13.5508ZM143.926 19V21.7832H141.914V17.1055H142.939C143.421 16.8255 143.77 16.3926 143.984 15.8066C144.206 15.2207 144.346 14.4362 144.404 13.4531L144.922 4.9082H154.102V17.1055H155.859V21.7832H153.857V19H143.926ZM168.275 19V8.39453H168.129L160.951 19H158.822V4.9082H160.99V15.543H161.137L168.314 4.9082H170.443V19H168.275ZM185.135 19H182.947V12.5449H182.869C181.945 13.4499 180.74 13.9023 179.256 13.9023C177.706 13.9023 176.456 13.4271 175.506 12.4766C174.562 11.526 174.09 10.2695 174.09 8.70703V4.9082H176.277V8.53125C176.277 9.59245 176.561 10.429 177.127 11.041C177.693 11.6465 178.471 11.9492 179.461 11.9492C180.249 11.9492 180.955 11.7767 181.58 11.4316C182.212 11.0801 182.667 10.6081 182.947 10.0156V4.9082H185.135V19ZM197.912 17.1055V19H188.967V4.9082H197.912V6.79297H191.154V10.9141H197.551V12.7305H191.154V17.1055H197.912ZM207.35 19.2637C205.364 19.2637 203.788 18.6061 202.623 17.291C201.464 15.9759 200.885 14.1953 200.885 11.9492C200.885 9.72266 201.467 7.94857 202.633 6.62695C203.805 5.30534 205.377 4.64453 207.35 4.64453C208.899 4.64453 210.217 5.07747 211.305 5.94336C212.398 6.80273 213.062 7.93555 213.297 9.3418H211.1C210.872 8.50846 210.416 7.84115 209.732 7.33984C209.055 6.83854 208.261 6.58789 207.35 6.58789C206.067 6.58789 205.042 7.07617 204.273 8.05273C203.512 9.02279 203.131 10.3216 203.131 11.9492C203.131 13.5964 203.512 14.9049 204.273 15.875C205.035 16.8385 206.064 17.3203 207.359 17.3203C208.297 17.3203 209.091 17.1022 209.742 16.666C210.4 16.2298 210.852 15.6178 211.1 14.8301H213.297C212.991 16.2298 212.317 17.3203 211.275 18.1016C210.24 18.8763 208.932 19.2637 207.35 19.2637ZM220.938 11.627L227.715 19H224.854L218.779 12.3887H218.701V19H216.514V4.9082H218.701V11.2168H218.779L224.521 4.9082H227.139L220.938 11.627ZM239.545 19L238.256 15.1914H232.885L231.596 19H229.32L234.408 4.9082H236.771L241.859 19H239.545ZM235.541 7.25195L233.441 13.4336H237.699L235.6 7.25195H235.541ZM252.498 11.9004V6.75391H249.627C248.696 6.75391 247.973 6.97852 247.459 7.42773C246.951 7.87695 246.697 8.50846 246.697 9.32227C246.697 10.1426 246.951 10.7773 247.459 11.2266C247.973 11.6758 248.696 11.9004 249.627 11.9004H252.498ZM249.949 13.6973L246.258 19H243.748L247.674 13.4141C246.697 13.1602 245.916 12.6686 245.33 11.9395C244.744 11.2038 244.451 10.3281 244.451 9.3125C244.451 8.00391 244.887 6.94271 245.76 6.12891C246.639 5.3151 247.781 4.9082 249.188 4.9082H254.676V19H252.498V13.6973H249.949ZM102.889 47V36.3945H102.742L95.5645 47H93.4355V32.9082H95.6035V43.543H95.75L102.928 32.9082H105.057V47H102.889ZM120.5 47H118.312V40.7598H111.076V47H108.889V32.9082H111.076V38.8652H118.312V32.9082H120.5V47ZM130.104 43.8848V35.9453C128.834 35.9974 127.828 36.3783 127.086 37.0879C126.344 37.7975 125.973 38.7383 125.973 39.9102C125.973 41.0951 126.34 42.0423 127.076 42.752C127.818 43.4616 128.827 43.8392 130.104 43.8848ZM136.363 39.9199C136.363 38.735 135.992 37.7878 135.25 37.0781C134.508 36.3685 133.502 35.9909 132.232 35.9453V43.8848C133.502 43.8327 134.508 43.4518 135.25 42.7422C135.992 42.0326 136.363 41.0918 136.363 39.9199ZM130.094 45.75C128.154 45.6979 126.614 45.151 125.475 44.1094C124.335 43.0612 123.766 41.6615 123.766 39.9102C123.766 38.1719 124.335 36.7819 125.475 35.7402C126.62 34.6921 128.16 34.1387 130.094 34.0801V32.6738H132.252V34.0801C134.186 34.1322 135.719 34.6823 136.852 35.7305C137.991 36.7721 138.561 38.1686 138.561 39.9199C138.561 41.6582 137.991 43.0514 136.852 44.0996C135.719 45.1413 134.186 45.6914 132.252 45.75V47.2344H130.094V45.75ZM147.861 32.6738C149.886 32.6738 151.491 33.3281 152.676 34.6367C153.867 35.9453 154.463 37.7194 154.463 39.959C154.463 42.1986 153.87 43.9727 152.686 45.2812C151.501 46.5833 149.893 47.2344 147.861 47.2344C145.83 47.2344 144.222 46.5833 143.037 45.2812C141.852 43.9727 141.26 42.1986 141.26 39.959C141.26 37.7194 141.852 35.9453 143.037 34.6367C144.222 33.3281 145.83 32.6738 147.861 32.6738ZM147.861 34.5977C146.52 34.5977 145.456 35.0794 144.668 36.043C143.887 37.0065 143.496 38.3118 143.496 39.959C143.496 41.5996 143.887 42.9017 144.668 43.8652C145.456 44.8288 146.52 45.3105 147.861 45.3105C149.196 45.3105 150.254 44.8288 151.035 43.8652C151.823 42.9017 152.217 41.5996 152.217 39.959C152.217 38.3118 151.823 37.0065 151.035 36.043C150.254 35.0794 149.196 34.5977 147.861 34.5977ZM157.768 32.9082H163.285C164.652 32.9082 165.769 33.3379 166.635 34.1973C167.501 35.0566 167.934 36.1699 167.934 37.5371C167.934 38.9108 167.494 40.0306 166.615 40.8965C165.736 41.7559 164.604 42.1855 163.217 42.1855H159.955V47H157.768V32.9082ZM159.955 34.7539V40.3496H162.709C163.66 40.3496 164.395 40.1055 164.916 39.6172C165.437 39.1224 165.697 38.4323 165.697 37.5469C165.697 36.6549 165.437 35.9681 164.916 35.4863C164.395 34.998 163.66 34.7539 162.709 34.7539H159.955ZM185.33 32.9082V47H183.328V36.6289H183.26L179.012 46.8926H177.391L173.133 36.6289H173.064V47H171.072V32.9082H173.602L178.162 44.0312H178.24L182.791 32.9082H185.33ZM198.381 47L197.092 43.1914H191.721L190.432 47H188.156L193.244 32.9082H195.607L200.695 47H198.381ZM194.377 35.252L192.277 41.4336H196.535L194.436 35.252H194.377ZM216.666 49.7832H214.664V47H203.482V32.9082H205.67V45.1152H212.721V32.9082H214.908V45.1152H216.666V49.7832ZM229.072 47V36.3945H228.926L221.748 47H219.619V32.9082H221.787V43.543H221.934L229.111 32.9082H231.24V47H229.072ZM242.963 39.9004V34.7539H240.092C239.161 34.7539 238.438 34.9785 237.924 35.4277C237.416 35.877 237.162 36.5085 237.162 37.3223C237.162 38.1426 237.416 38.7773 237.924 39.2266C238.438 39.6758 239.161 39.9004 240.092 39.9004H242.963ZM240.414 41.6973L236.723 47H234.213L238.139 41.4141C237.162 41.1602 236.381 40.6686 235.795 39.9395C235.209 39.2038 234.916 38.3281 234.916 37.3125C234.916 36.0039 235.352 34.9427 236.225 34.1289C237.104 33.3151 238.246 32.9082 239.652 32.9082H245.141V47H242.963V41.6973H240.414Z" fill="#FEFEFE"/>
<g clip-path="url(#clip0_684_247)">
<path d="M26.4447 48C17.9285 48 11 41.0469 11 32.5C11 23.9531 17.9285 17 26.4447 17H27.292V32.1485L37.9638 42.8586L37.3645 43.46C35.9338 44.9036 34.232 46.0482 32.3576 46.8275C30.4833 47.6067 28.4736 48.0053 26.4447 48ZM25.5969 18.7276C18.4085 19.1684 12.6952 25.1772 12.6952 32.5C12.6952 40.1085 18.8631 46.2983 26.4447 46.2983C29.7997 46.3072 33.0405 45.0759 35.5484 42.8394L25.5969 32.8526V18.7276Z" fill="#00FBF4"/>
<path d="M37.6357 32.6251C37.6354 32.9264 37.5461 33.2208 37.3791 33.4711C37.212 33.7215 36.9748 33.9165 36.6973 34.0315C36.4199 34.1465 36.1147 34.1764 35.8203 34.1174C35.5259 34.0583 35.2556 33.913 35.0435 33.6998C34.8314 33.4866 34.687 33.2151 34.6287 32.9195C34.5704 32.624 34.6007 32.3178 34.7158 32.0395C34.8309 31.7613 35.0256 31.5235 35.2753 31.3563C35.5251 31.1891 35.8186 31.1 36.1188 31.1002C36.3183 31.1 36.5158 31.1393 36.7001 31.2159C36.8844 31.2925 37.0518 31.4049 37.1928 31.5466C37.3337 31.6882 37.4454 31.8564 37.5214 32.0415C37.5974 32.2266 37.6363 32.4249 37.6357 32.6251Z" fill="white"/>
<path d="M42 32.6249C41.9993 32.9256 41.9098 33.2194 41.7428 33.4691C41.5758 33.7188 41.3388 33.9132 41.0617 34.0278C40.7847 34.1423 40.48 34.172 40.1862 34.1128C39.8923 34.0537 39.6226 33.9086 39.4109 33.6957C39.1993 33.4828 39.0553 33.2117 38.9971 32.9167C38.9389 32.6217 38.9691 32.316 39.084 32.0382C39.1988 31.7605 39.3931 31.5231 39.6423 31.3561C39.8915 31.1891 40.1844 31.1 40.4841 31.1C40.6835 31.0998 40.881 31.1392 41.0652 31.2158C41.2494 31.2925 41.4168 31.4048 41.5576 31.5465C41.6984 31.6882 41.81 31.8564 41.8859 32.0414C41.9619 32.2265 42.0006 32.4248 42 32.6249Z" fill="white"/>
<path d="M42 37.2395C41.9998 37.5403 41.9107 37.8343 41.744 38.0844C41.5773 38.3344 41.3405 38.5292 41.0635 38.6442C40.7865 38.7592 40.4817 38.7892 40.1877 38.7304C39.8937 38.6715 39.6237 38.5266 39.4118 38.3138C39.1999 38.101 39.0557 37.8299 38.9973 37.5348C38.9388 37.2398 38.9689 36.9339 39.0837 36.656C39.1985 36.3781 39.3928 36.1406 39.642 35.9735C39.8913 35.8064 40.1843 35.7172 40.4841 35.7172C40.6832 35.7172 40.8804 35.7567 41.0644 35.8332C41.2483 35.9097 41.4155 36.0219 41.5562 36.1633C41.697 36.3046 41.8086 36.4724 41.8848 36.6571C41.9609 36.8417 42.0001 37.0396 42 37.2395Z" fill="white"/>
<path d="M32.5977 25.8652H30.9025V28.3043H32.5977V25.8652Z" fill="#01A982"/>
<path d="M36.9666 22.0211H35.2715V28.3043H36.9666V22.0211Z" fill="#01A982"/>
<path d="M41.3319 17.3H39.6368V28.3041H41.3319V17.3Z" fill="#01A982"/>
</g>
<defs>
<linearGradient id="paint0_linear_684_247" x1="171.5" y1="0" x2="171.5" y2="59" gradientUnits="userSpaceOnUse">
<stop offset="0.192708" stop-color="#00FBF4" stop-opacity="0"/>
<stop offset="0.807292" stop-color="#00FBF4"/>
</linearGradient>
<clipPath id="clip0_684_247">
<rect width="31" height="31" fill="white" transform="translate(11 17)"/>
</clipPath>
</defs>
</svg>
