<svg width="351" height="77" viewBox="0 0 351 77" fill="none" xmlns="http://www.w3.org/2000/svg">
<path d="M275.628 47.5996L274.079 46.8772L278.832 36.6926L289.046 38.0767L288.817 39.7713L279.848 38.556L275.628 47.5996Z" fill="white"/>
<path d="M289.833 57.4972L286.748 55.1849L287.76 53.8177L289.786 55.3469L297.655 49.2166L291.889 43.9909C290.815 44.2002 287.956 44.764 286.447 45.0813C284.722 45.4459 283.544 45.3075 282.855 44.6661C282.665 44.4915 282.518 44.2748 282.426 44.0334C282.334 43.7919 282.299 43.5324 282.325 43.2753L282.376 42.9175L289.381 37.7492L297.297 37.1416L302.992 49.6487L301.435 50.3576L296.22 38.9476L290.012 39.4168L284.428 43.5555C284.995 43.6064 285.565 43.5607 286.116 43.4204C288.003 43.0221 292.004 42.2423 292.004 42.2423L292.422 42.1613L300.328 49.3246L289.833 57.4972Z" fill="white"/>
<path d="M286.819 57.288L274.21 49.0479L278.447 45.3042L278.7 45.2671C278.828 45.2502 281.806 44.862 284.874 47.0764C288.982 50.0437 289.323 52.9029 289.337 53.0245L289.367 53.3215L286.819 57.288ZM277.029 48.8487L286.319 54.925L287.585 52.957C287.389 52.3021 286.633 50.4623 283.872 48.474C282.51 47.4683 280.858 46.9349 279.166 46.9549L277.029 48.8487Z" fill="white"/>
<path d="M305.935 51.0058L298.846 35.4775L323.911 24L331 39.5283L305.935 51.0058ZM301.101 36.3281L306.779 48.7407L328.721 38.6979L323.057 26.2854L301.101 36.3281Z" fill="#7FF9E2"/>
<path d="M314.229 43.7312C314.899 43.7312 315.441 43.1886 315.441 42.5193C315.441 41.85 314.899 41.3074 314.229 41.3074C313.56 41.3074 313.018 41.85 313.018 42.5193C313.018 43.1886 313.56 43.7312 314.229 43.7312Z" fill="#7FF9E2"/>
<path d="M311.239 45.1557C311.908 45.1557 312.45 44.6131 312.45 43.9438C312.45 43.2745 311.908 42.7319 311.239 42.7319C310.569 42.7319 310.027 43.2745 310.027 43.9438C310.027 44.6131 310.569 45.1557 311.239 45.1557Z" fill="#7FF9E2"/>
<path d="M308.197 46.4724C308.866 46.4724 309.409 45.9298 309.409 45.2605C309.409 44.5912 308.866 44.0486 308.197 44.0486C307.528 44.0486 306.985 44.5912 306.985 45.2605C306.985 45.9298 307.528 46.4724 308.197 46.4724Z" fill="#7FF9E2"/>
<path d="M270.065 51.0058L245 39.5283L252.089 24L277.154 35.4775L270.065 51.0058ZM247.272 38.6979L269.214 48.7407L274.892 36.3281L252.95 26.2854L247.272 38.6979Z" fill="#80746E"/>
<path d="M262.155 43.7312C262.825 43.7312 263.367 43.1886 263.367 42.5193C263.367 41.85 262.825 41.3074 262.155 41.3074C261.486 41.3074 260.944 41.85 260.944 42.5193C260.944 43.1886 261.486 43.7312 262.155 43.7312Z" fill="#80746E"/>
<path d="M265.146 45.1557C265.816 45.1557 266.358 44.6131 266.358 43.9438C266.358 43.2745 265.816 42.7319 265.146 42.7319C264.477 42.7319 263.934 43.2745 263.934 43.9438C263.934 44.6131 264.477 45.1557 265.146 45.1557Z" fill="#80746E"/>
<path d="M268.191 46.4721C268.861 46.4721 269.403 45.9295 269.403 45.2602C269.403 44.5909 268.861 44.0483 268.191 44.0483C267.522 44.0483 266.979 44.5909 266.979 45.2602C266.979 45.9295 267.522 46.4721 268.191 46.4721Z" fill="#80746E"/>
<line x1="4" y1="68" x2="347" y2="68" stroke="#00FBF4" stroke-width="2"/>
<g filter="url(#filter0_d_313_410)">
<rect x="4" width="343" height="69" fill="url(#paint0_linear_313_410)" fill-opacity="0.1" shape-rendering="crispEdges"/>
</g>
<path d="M27.3535 26.2637C25.3678 26.2637 23.7923 25.6061 22.627 24.291C21.4681 22.9759 20.8887 21.1953 20.8887 18.9492C20.8887 16.7227 21.4714 14.9486 22.6367 13.627C23.8086 12.3053 25.3809 11.6445 27.3535 11.6445C28.903 11.6445 30.2214 12.0775 31.3086 12.9434C32.4023 13.8027 33.0664 14.9355 33.3008 16.3418H31.1035C30.8757 15.5085 30.4199 14.8411 29.7363 14.3398C29.0592 13.8385 28.265 13.5879 27.3535 13.5879C26.071 13.5879 25.0456 14.0762 24.2773 15.0527C23.5156 16.0228 23.1348 17.3216 23.1348 18.9492C23.1348 20.5964 23.5156 21.9049 24.2773 22.875C25.0391 23.8385 26.0677 24.3203 27.3633 24.3203C28.3008 24.3203 29.0951 24.1022 29.7461 23.666C30.4036 23.2298 30.8561 22.6178 31.1035 21.8301H33.3008C32.9948 23.2298 32.321 24.3203 31.2793 25.1016C30.2441 25.8763 28.9355 26.2637 27.3535 26.2637ZM41.5566 26H39.3691V13.793H34.9746V11.9082H45.9414V13.793H41.5566V26ZM56.4629 26L55.1738 22.1914H49.8027L48.5137 26H46.2383L51.3262 11.9082H53.6895L58.7773 26H56.4629ZM52.459 14.252L50.3594 20.4336H54.6172L52.5176 14.252H52.459ZM65.5879 26H63.4004V13.793H59.0059V11.9082H69.9727V13.793H65.5879V26ZM73.0527 26V11.9082H75.2402V16.957H78.4238C79.8105 16.957 80.9434 17.377 81.8223 18.2168C82.7012 19.0566 83.1406 20.1439 83.1406 21.4785C83.1406 22.8132 82.7077 23.9004 81.8418 24.7402C80.9824 25.5801 79.8659 26 78.4922 26H73.0527ZM75.2402 24.1445H77.916C78.8665 24.1445 79.599 23.9134 80.1133 23.4512C80.6341 22.9889 80.8945 22.3314 80.8945 21.4785C80.8945 20.6191 80.6341 19.9583 80.1133 19.4961C79.5924 19.0339 78.86 18.8027 77.916 18.8027H75.2402V24.1445ZM32.8516 56H30.6836V43.8125H23.6328V56H21.4355V41.9082H32.8516V56ZM45.873 56L44.584 52.1914H39.2129L37.9238 56H35.6484L40.7363 41.9082H43.0996L48.1875 56H45.873ZM41.8691 44.252L39.7695 50.4336H44.0273L41.9277 44.252H41.8691ZM50.9355 41.9082H56.4531C57.8203 41.9082 58.9368 42.3379 59.8027 43.1973C60.6686 44.0566 61.1016 45.1699 61.1016 46.5371C61.1016 47.9108 60.6621 49.0306 59.7832 49.8965C58.9043 50.7559 57.7715 51.1855 56.3848 51.1855H53.123V56H50.9355V41.9082ZM53.123 43.7539V49.3496H55.877C56.8275 49.3496 57.5632 49.1055 58.084 48.6172C58.6048 48.1224 58.8652 47.4323 58.8652 46.5469C58.8652 45.6549 58.6048 44.9681 58.084 44.4863C57.5632 43.998 56.8275 43.7539 55.877 43.7539H53.123ZM70.002 56H67.8145V43.793H63.4199V41.9082H74.3867V43.793H70.002V56ZM89.0391 56H86.8516V49.7598H79.6152V56H77.4277V41.9082H79.6152V47.8652H86.8516V41.9082H89.0391V56ZM101.846 54.1055V56H92.9004V41.9082H101.846V43.793H95.0879V47.9141H101.484V49.7305H95.0879V54.1055H101.846ZM105.326 41.9082H110.844C112.211 41.9082 113.327 42.3379 114.193 43.1973C115.059 44.0566 115.492 45.1699 115.492 46.5371C115.492 47.9108 115.053 49.0306 114.174 49.8965C113.295 50.7559 112.162 51.1855 110.775 51.1855H107.514V56H105.326V41.9082ZM107.514 43.7539V49.3496H110.268C111.218 49.3496 111.954 49.1055 112.475 48.6172C112.995 48.1224 113.256 47.4323 113.256 46.5469C113.256 45.6549 112.995 44.9681 112.475 44.4863C111.954 43.998 111.218 43.7539 110.268 43.7539H107.514ZM124.725 41.6738C126.749 41.6738 128.354 42.3281 129.539 43.6367C130.73 44.9453 131.326 46.7194 131.326 48.959C131.326 51.1986 130.734 52.9727 129.549 54.2812C128.364 55.5833 126.756 56.2344 124.725 56.2344C122.693 56.2344 121.085 55.5833 119.9 54.2812C118.715 52.9727 118.123 51.1986 118.123 48.959C118.123 46.7194 118.715 44.9453 119.9 43.6367C121.085 42.3281 122.693 41.6738 124.725 41.6738ZM124.725 43.5977C123.383 43.5977 122.319 44.0794 121.531 45.043C120.75 46.0065 120.359 47.3118 120.359 48.959C120.359 50.5996 120.75 51.9017 121.531 52.8652C122.319 53.8288 123.383 54.3105 124.725 54.3105C126.059 54.3105 127.117 53.8288 127.898 52.8652C128.686 51.9017 129.08 50.5996 129.08 48.959C129.08 47.3118 128.686 46.0065 127.898 45.043C127.117 44.0794 126.059 43.5977 124.725 43.5977ZM148.889 41.9082V56H146.887V45.6289H146.818L142.57 55.8926H140.949L136.691 45.6289H136.623V56H134.631V41.9082H137.16L141.721 53.0312H141.799L146.35 41.9082H148.889Z" fill="white"/>
<defs>
<filter id="filter0_d_313_410" x="0" y="0" width="351" height="77" filterUnits="userSpaceOnUse" color-interpolation-filters="sRGB">
<feFlood flood-opacity="0" result="BackgroundImageFix"/>
<feColorMatrix in="SourceAlpha" type="matrix" values="0 0 0 0 0 0 0 0 0 0 0 0 0 0 0 0 0 0 127 0" result="hardAlpha"/>
<feOffset dy="4"/>
<feGaussianBlur stdDeviation="2"/>
<feComposite in2="hardAlpha" operator="out"/>
<feColorMatrix type="matrix" values="0 0 0 0 0 0 0 0 0 0 0 0 0 0 0 0 0 0 0.25 0"/>
<feBlend mode="normal" in2="BackgroundImageFix" result="effect1_dropShadow_313_410"/>
<feBlend mode="normal" in="SourceGraphic" in2="effect1_dropShadow_313_410" result="shape"/>
</filter>
<linearGradient id="paint0_linear_313_410" x1="175.5" y1="0" x2="175.5" y2="69" gradientUnits="userSpaceOnUse">
<stop offset="0.192708" stop-color="#00FBF4" stop-opacity="0"/>
<stop offset="0.807292" stop-color="#00FBF4"/>
</linearGradient>
</defs>
</svg>
