<svg width="18" height="12" viewBox="0 0 18 12" fill="none" xmlns="http://www.w3.org/2000/svg">
<path d="M0.0541992 0.0219727H4.88525C6.07503 0.0219727 7.04346 0.392741 7.79053 1.13428C8.5376 1.87581 8.91113 2.84147 8.91113 4.03125C8.91113 5.22103 8.5293 6.18669 7.76562 6.92822C7.00195 7.66976 6.01139 8.04053 4.79395 8.04053H2.1958V12H0.0541992V0.0219727ZM2.1958 1.77344V6.31396H4.3125C5.08171 6.31396 5.6766 6.11475 6.09717 5.71631C6.52327 5.31787 6.73633 4.75618 6.73633 4.03125C6.73633 3.31185 6.52604 2.7557 6.10547 2.36279C5.6849 1.96989 5.09001 1.77344 4.3208 1.77344H2.1958ZM17.3786 10.1904V12H9.79998V0.0219727H11.9416V10.1904H17.3786Z" fill="#FEFEFE"/>
</svg>
