<svg width="288" height="43" viewBox="0 0 288 43" fill="none" xmlns="http://www.w3.org/2000/svg">
<rect width="288" height="41" fill="url(#paint0_linear_684_237)" fill-opacity="0.1"/>
<line y1="41.9292" x2="288" y2="41.9292" stroke="#00FBF4" stroke-width="2"/>
<path d="M81.4902 13.6738C83.515 13.6738 85.1198 14.3281 86.3047 15.6367C87.4961 16.9453 88.0918 18.7194 88.0918 20.959C88.0918 23.1986 87.4993 24.9727 86.3145 26.2812C85.1296 27.5833 83.5215 28.2344 81.4902 28.2344C79.459 28.2344 77.8509 27.5833 76.666 26.2812C75.4811 24.9727 74.8887 23.1986 74.8887 20.959C74.8887 18.7194 75.4811 16.9453 76.666 15.6367C77.8509 14.3281 79.459 13.6738 81.4902 13.6738ZM81.4902 15.5977C80.1491 15.5977 79.0846 16.0794 78.2969 17.043C77.5156 18.0065 77.125 19.3118 77.125 20.959C77.125 22.5996 77.5156 23.9017 78.2969 24.8652C79.0846 25.8288 80.1491 26.3105 81.4902 26.3105C82.8249 26.3105 83.8828 25.8288 84.6641 24.8652C85.4518 23.9017 85.8457 22.5996 85.8457 20.959C85.8457 19.3118 85.4518 18.0065 84.6641 17.043C83.8828 16.0794 82.8249 15.5977 81.4902 15.5977ZM97.1535 28.2637C95.1678 28.2637 93.5923 27.6061 92.427 26.291C91.2681 24.9759 90.6887 23.1953 90.6887 20.9492C90.6887 18.7227 91.2714 16.9486 92.4367 15.627C93.6086 14.3053 95.1809 13.6445 97.1535 13.6445C98.703 13.6445 100.021 14.0775 101.109 14.9434C102.202 15.8027 102.866 16.9355 103.101 18.3418H100.904C100.676 17.5085 100.22 16.8411 99.5363 16.3398C98.8592 15.8385 98.065 15.5879 97.1535 15.5879C95.871 15.5879 94.8456 16.0762 94.0773 17.0527C93.3156 18.0228 92.9348 19.3216 92.9348 20.9492C92.9348 22.5964 93.3156 23.9049 94.0773 24.875C94.8391 25.8385 95.8677 26.3203 97.1633 26.3203C98.1008 26.3203 98.8951 26.1022 99.5461 25.666C100.204 25.2298 100.656 24.6178 100.904 23.8301H103.101C102.795 25.2298 102.121 26.3203 101.079 27.1016C100.044 27.8763 98.7355 28.2637 97.1535 28.2637ZM111.157 28H108.969V15.793H104.575V13.9082H115.541V15.793H111.157V28ZM125.863 28L124.574 24.1914H119.203L117.914 28H115.638L120.726 13.9082H123.089L128.177 28H125.863ZM121.859 16.252L119.759 22.4336H124.017L121.918 16.252H121.859ZM136.516 28H130.725V13.9082H136.497C137.74 13.9082 138.74 14.2305 139.495 14.875C140.25 15.513 140.628 16.3626 140.628 17.4238C140.628 18.1725 140.387 18.8431 139.905 19.4355C139.423 20.0215 138.831 20.373 138.128 20.4902V20.5684C139.085 20.679 139.856 21.0501 140.442 21.6816C141.035 22.3066 141.331 23.0846 141.331 24.0156C141.331 25.2591 140.904 26.2357 140.052 26.9453C139.199 27.6484 138.02 28 136.516 28ZM132.913 15.6953V19.9043H135.501C136.451 19.9043 137.18 19.7155 137.688 19.3379C138.196 18.9603 138.45 18.4232 138.45 17.7266C138.45 17.0755 138.232 16.5742 137.796 16.2227C137.366 15.8711 136.754 15.6953 135.96 15.6953H132.913ZM132.913 26.2129H136.077C137.06 26.2129 137.809 26.0143 138.323 25.6172C138.837 25.2201 139.095 24.6406 139.095 23.8789C139.095 23.1172 138.828 22.5443 138.294 22.1602C137.766 21.7695 136.985 21.5742 135.95 21.5742H132.913V26.2129ZM153.752 28V17.3945H153.605L146.428 28H144.299V13.9082H146.467V24.543H146.613L153.791 13.9082H155.92V28H153.752ZM165.314 28H163.126V15.793H158.732V13.9082H169.698V15.793H165.314V28ZM172.579 28V13.9082H174.766V18.957H177.95C179.336 18.957 180.469 19.377 181.348 20.2168C182.227 21.0566 182.666 22.1439 182.666 23.4785C182.666 24.8132 182.233 25.9004 181.368 26.7402C180.508 27.5801 179.392 28 178.018 28H172.579ZM174.766 26.1445H177.442C178.392 26.1445 179.125 25.9134 179.639 25.4512C180.16 24.9889 180.42 24.3314 180.42 23.4785C180.42 22.6191 180.16 21.9583 179.639 21.4961C179.118 21.0339 178.386 20.8027 177.442 20.8027H174.766V26.1445ZM197.069 13.6738C199.094 13.6738 200.699 14.3281 201.884 15.6367C203.075 16.9453 203.671 18.7194 203.671 20.959C203.671 23.1986 203.078 24.9727 201.893 26.2812C200.708 27.5833 199.1 28.2344 197.069 28.2344C195.038 28.2344 193.43 27.5833 192.245 26.2812C191.06 24.9727 190.468 23.1986 190.468 20.959C190.468 18.7194 191.06 16.9453 192.245 15.6367C193.43 14.3281 195.038 13.6738 197.069 13.6738ZM197.069 15.5977C195.728 15.5977 194.664 16.0794 193.876 17.043C193.095 18.0065 192.704 19.3118 192.704 20.959C192.704 22.5996 193.095 23.9017 193.876 24.8652C194.664 25.8288 195.728 26.3105 197.069 26.3105C198.404 26.3105 199.462 25.8288 200.243 24.8652C201.031 23.9017 201.425 22.5996 201.425 20.959C201.425 19.3118 201.031 18.0065 200.243 17.043C199.462 16.0794 198.404 15.5977 197.069 15.5977ZM211.541 28H209.354V15.793H204.959V13.9082H215.926V15.793H211.541V28ZM221.159 21.7109V19.8848H223.054C223.861 19.8848 224.515 19.6699 225.017 19.2402C225.525 18.8105 225.779 18.2572 225.779 17.5801C225.779 16.903 225.541 16.3691 225.066 15.9785C224.597 15.5879 223.959 15.3926 223.152 15.3926C222.331 15.3926 221.667 15.5944 221.159 15.998C220.658 16.3952 220.375 16.9453 220.31 17.6484H218.239C218.311 16.3854 218.793 15.3893 219.685 14.6602C220.577 13.931 221.755 13.5664 223.22 13.5664C224.607 13.5664 225.739 13.9212 226.618 14.6309C227.497 15.334 227.937 16.2422 227.937 17.3555C227.937 18.1432 227.693 18.8366 227.204 19.4355C226.723 20.028 226.091 20.4186 225.31 20.6074V20.6855C226.254 20.8027 226.999 21.1738 227.546 21.7988C228.093 22.4238 228.366 23.2148 228.366 24.1719C228.366 25.3568 227.872 26.3496 226.882 27.1504C225.892 27.9447 224.659 28.3418 223.181 28.3418C221.651 28.3418 220.401 27.9642 219.431 27.209C218.461 26.4538 217.943 25.4544 217.878 24.2109H219.988C220.053 24.901 220.372 25.4544 220.945 25.8711C221.524 26.2812 222.266 26.4863 223.171 26.4863C224.05 26.4863 224.76 26.2617 225.3 25.8125C225.847 25.3633 226.12 24.7806 226.12 24.0645C226.12 23.3288 225.853 22.7526 225.32 22.3359C224.792 21.9193 224.057 21.7109 223.113 21.7109H221.159ZM245.319 28H243.131V13.9082H245.319V28ZM231.325 28V13.9082H233.512V18.957H236.696C238.082 18.957 239.215 19.377 240.094 20.2168C240.973 21.0566 241.413 22.1439 241.413 23.4785C241.413 24.8132 240.98 25.9004 240.114 26.7402C239.254 27.5801 238.138 28 236.764 28H231.325ZM233.512 26.1445H236.188C237.138 26.1445 237.871 25.9134 238.385 25.4512C238.906 24.9889 239.166 24.3314 239.166 23.4785C239.166 22.6191 238.906 21.9583 238.385 21.4961C237.864 21.0339 237.132 20.8027 236.188 20.8027H233.512V26.1445ZM254.791 28H249V13.9082H254.771C256.015 13.9082 257.014 14.2305 257.769 14.875C258.524 15.513 258.902 16.3626 258.902 17.4238C258.902 18.1725 258.661 18.8431 258.179 19.4355C257.698 20.0215 257.105 20.373 256.402 20.4902V20.5684C257.359 20.679 258.13 21.0501 258.716 21.6816C259.309 22.3066 259.605 23.0846 259.605 24.0156C259.605 25.2591 259.179 26.2357 258.326 26.9453C257.473 27.6484 256.295 28 254.791 28ZM251.187 15.6953V19.9043H253.775C254.726 19.9043 255.455 19.7155 255.962 19.3379C256.47 18.9603 256.724 18.4232 256.724 17.7266C256.724 17.0755 256.506 16.5742 256.07 16.2227C255.64 15.8711 255.028 15.6953 254.234 15.6953H251.187ZM251.187 26.2129H254.351C255.334 26.2129 256.083 26.0143 256.597 25.6172C257.112 25.2201 257.369 24.6406 257.369 23.8789C257.369 23.1172 257.102 22.5443 256.568 22.1602C256.041 21.7695 255.259 21.5742 254.224 21.5742H251.187V26.2129Z" fill="white"/>
<g clip-path="url(#clip0_684_237)">
<path d="M59.1634 25.445L53.7196 20.2135H48.9942V18.4049H54.4988L60.4931 24.1662L59.1634 25.445Z" fill="#00FBF4"/>
<path d="M61 19.3095H59.1185V7.80856H42.3005V11.7681H40.419V6H61V19.3095Z" fill="#00FBF4"/>
<path d="M27.8378 33.0001L26.508 31.7213L32.5024 25.9606H44.7007V15.9815H27.8815V26.8646H26V14.1729H46.5822V27.7692H33.2816L27.8378 33.0001Z" fill="white"/>
</g>
<defs>
<linearGradient id="paint0_linear_684_237" x1="144" y1="0" x2="144" y2="41" gradientUnits="userSpaceOnUse">
<stop offset="0.192708" stop-color="#00FBF4" stop-opacity="0"/>
<stop offset="0.807292" stop-color="#00FBF4"/>
</linearGradient>
<clipPath id="clip0_684_237">
<rect width="35" height="27" fill="white" transform="translate(26 6)"/>
</clipPath>
</defs>
</svg>
