<svg width="20" height="13" viewBox="0 0 20 13" fill="none" xmlns="http://www.w3.org/2000/svg">
<path d="M2.1958 1.75684V5.84912H4.66943C5.3501 5.84912 5.87581 5.66927 6.24658 5.30957C6.62288 4.94987 6.81104 4.44629 6.81104 3.79883C6.81104 3.16797 6.61458 2.66992 6.22168 2.30469C5.83431 1.93945 5.30029 1.75684 4.61963 1.75684H2.1958ZM2.1958 7.49268V12H0.0541992V0.0219727H4.86865C6.15804 0.0219727 7.17074 0.356771 7.90674 1.02637C8.64274 1.69043 9.01074 2.59798 9.01074 3.74902C9.01074 4.55143 8.81152 5.25977 8.41309 5.87402C8.01465 6.48275 7.46126 6.91439 6.75293 7.16895L9.36768 12H6.91895L4.56982 7.49268H2.1958ZM12.2072 0.0219727V7.58398C12.2072 8.41406 12.4507 9.08089 12.9377 9.58447C13.4302 10.0825 14.1136 10.3315 14.988 10.3315C15.8623 10.3315 16.5457 10.0825 17.0383 9.58447C17.5308 9.08089 17.777 8.41406 17.777 7.58398V0.0219727H19.9103V7.7749C19.9103 9.09749 19.4649 10.1655 18.5739 10.979C17.6885 11.7925 16.4932 12.1992 14.988 12.1992C13.4883 12.1992 12.293 11.7925 11.402 10.979C10.5111 10.1655 10.0656 9.09749 10.0656 7.7749V0.0219727H12.2072Z" fill="#00FBF4"/>
</svg>
