<svg width="91" height="16" viewBox="0 0 91 16" fill="none" xmlns="http://www.w3.org/2000/svg">
<path d="M4.67969 6.0625L9.71875 12H6.77344L2.52344 7.04688H2.46094V12H0.101562V0.726562H2.46094V5.5H2.52344L6.6875 0.726562H9.35156L4.67969 6.0625ZM14.1172 12.1484C12.8099 12.1484 11.776 11.7526 11.0156 10.9609C10.2552 10.1693 9.875 9.08073 9.875 7.69531C9.875 6.32552 10.2578 5.24219 11.0234 4.44531C11.7891 3.64844 12.8203 3.25 14.1172 3.25C15.4193 3.25 16.4505 3.64844 17.2109 4.44531C17.9766 5.23698 18.3594 6.32031 18.3594 7.69531C18.3594 9.08594 17.9792 10.1771 17.2188 10.9688C16.4635 11.7552 15.4297 12.1484 14.1172 12.1484ZM12.6953 9.6875C13.0391 10.1562 13.513 10.3906 14.1172 10.3906C14.7214 10.3906 15.1927 10.1562 15.5312 9.6875C15.8698 9.21354 16.0391 8.54948 16.0391 7.69531C16.0391 6.85156 15.8672 6.19271 15.5234 5.71875C15.1849 5.23958 14.7161 5 14.1172 5C13.513 5 13.0391 5.23958 12.6953 5.71875C12.3568 6.19271 12.1875 6.85156 12.1875 7.69531C12.1875 8.54948 12.3568 9.21354 12.6953 9.6875ZM24.1328 10.3906V5C23.4089 5.02604 22.8333 5.27865 22.4062 5.75781C21.9844 6.23177 21.7734 6.8776 21.7734 7.69531C21.7734 8.52344 21.9844 9.17448 22.4062 9.64844C22.8281 10.1224 23.4036 10.3698 24.1328 10.3906ZM28.6797 7.69531C28.6797 6.86719 28.4688 6.21875 28.0469 5.75C27.625 5.27604 27.0495 5.02604 26.3203 5V10.3906C27.0391 10.3698 27.612 10.1198 28.0391 9.64062C28.4661 9.16146 28.6797 8.51302 28.6797 7.69531ZM24.1172 12.125C22.6901 12.0885 21.5573 11.6771 20.7188 10.8906C19.8854 10.1042 19.4688 9.03906 19.4688 7.69531C19.4688 6.36198 19.888 5.29948 20.7266 4.50781C21.5703 3.71615 22.7005 3.30469 24.1172 3.27344V0.625H26.3438V3.27344C27.7708 3.3099 28.901 3.72135 29.7344 4.50781C30.5677 5.28906 30.9844 6.35417 30.9844 7.70312C30.9844 9.03646 30.5625 10.099 29.7188 10.8906C28.8802 11.6823 27.7552 12.0938 26.3438 12.125V14.7031H24.1172V12.125ZM36.2188 4.95312C35.6979 4.95312 35.263 5.125 34.9141 5.46875C34.5703 5.8125 34.3776 6.26042 34.3359 6.8125H38.0469C38.026 6.25 37.849 5.79948 37.5156 5.46094C37.1823 5.1224 36.75 4.95312 36.2188 4.95312ZM38.0781 9.375H40.1797C40.0547 10.2083 39.6354 10.8802 38.9219 11.3906C38.2083 11.8958 37.3281 12.1484 36.2812 12.1484C34.974 12.1484 33.9427 11.7552 33.1875 10.9688C32.4375 10.1823 32.0625 9.10417 32.0625 7.73438C32.0625 6.36458 32.4349 5.27604 33.1797 4.46875C33.9297 3.65625 34.9349 3.25 36.1953 3.25C37.4349 3.25 38.4193 3.63542 39.1484 4.40625C39.8828 5.17708 40.25 6.21615 40.25 7.52344V8.22656H34.3125V8.36719C34.3125 8.98698 34.4974 9.48958 34.8672 9.875C35.237 10.2552 35.7214 10.4453 36.3203 10.4453C36.7526 10.4453 37.125 10.3516 37.4375 10.1641C37.7552 9.97135 37.9688 9.70833 38.0781 9.375ZM46.7656 12.25C45.125 12.25 43.8255 11.724 42.8672 10.6719C41.9089 9.61458 41.4297 8.17708 41.4297 6.35938C41.4297 4.54688 41.9089 3.11458 42.8672 2.0625C43.8307 1.00521 45.1302 0.476562 46.7656 0.476562C48.0833 0.476562 49.1979 0.854167 50.1094 1.60938C51.0208 2.35938 51.5521 3.33333 51.7031 4.53125H49.3828C49.2318 3.91146 48.9193 3.41667 48.4453 3.04688C47.9714 2.67188 47.4115 2.48438 46.7656 2.48438C45.875 2.48438 45.1641 2.83333 44.6328 3.53125C44.1068 4.22396 43.8438 5.16406 43.8438 6.35156C43.8438 7.55469 44.1068 8.50521 44.6328 9.20312C45.1589 9.89583 45.8724 10.2422 46.7734 10.2422C47.4349 10.2422 47.9948 10.0729 48.4531 9.73438C48.9167 9.39062 49.2292 8.91667 49.3906 8.3125H51.7109C51.5286 9.52083 50.9922 10.4792 50.1016 11.1875C49.2161 11.8958 48.1042 12.25 46.7656 12.25ZM56.4531 10.4375C56.9896 10.4375 57.4401 10.2891 57.8047 9.99219C58.1693 9.6901 58.3516 9.30729 58.3516 8.84375V8.21094L56.5469 8.33594C56.0729 8.36719 55.7109 8.47396 55.4609 8.65625C55.2109 8.83854 55.0859 9.08854 55.0859 9.40625C55.0859 9.72396 55.2083 9.97656 55.4531 10.1641C55.7031 10.3464 56.0365 10.4375 56.4531 10.4375ZM55.7109 12.1016C54.8724 12.1016 54.1797 11.862 53.6328 11.3828C53.0859 10.9036 52.8125 10.2839 52.8125 9.52344C52.8125 8.7474 53.1016 8.14062 53.6797 7.70312C54.2578 7.26562 55.099 7.01302 56.2031 6.94531L58.3516 6.8125V6.24219C58.3516 5.83073 58.2188 5.51562 57.9531 5.29688C57.6875 5.07292 57.3177 4.96094 56.8438 4.96094C56.4375 4.96094 56.0964 5.0599 55.8203 5.25781C55.5495 5.45052 55.3854 5.70573 55.3281 6.02344H53.2422C53.2734 5.20052 53.6276 4.53385 54.3047 4.02344C54.987 3.50781 55.8646 3.25 56.9375 3.25C58.0417 3.25 58.9271 3.51042 59.5938 4.03125C60.2604 4.55208 60.5938 5.24219 60.5938 6.10156V12H58.3906V10.6719H58.3438C58.1146 11.1146 57.7578 11.4635 57.2734 11.7188C56.7943 11.974 56.2734 12.1016 55.7109 12.1016ZM63.1953 15.1406C62.7318 15.1406 62.4427 15.1302 62.3281 15.1094V13.3438C62.4062 13.3594 62.5781 13.3672 62.8438 13.3672C63.276 13.3672 63.6146 13.2865 63.8594 13.125C64.1094 12.9688 64.2786 12.7214 64.3672 12.3828L64.4453 12.0547L61.4297 3.39844H63.9297L65.7891 10.1484H65.8359L67.7031 3.39844H70.1094L67.1328 12.1719C66.7682 13.2656 66.2891 14.0339 65.6953 14.4766C65.1068 14.9193 64.2734 15.1406 63.1953 15.1406ZM76.8516 12V8.45312H73.4062V12H71.1328V3.39844H73.4062V6.71875H76.8516V3.39844H79.125V12H76.8516ZM86.5938 10.2656V5.11719H83.9688L83.7734 7.89844C83.6953 8.91927 83.4818 9.6875 83.1328 10.2031V10.2656H86.5938ZM82.2188 14.2266H80.1406V10.2656H80.8047C81.3464 9.96354 81.6641 9.1276 81.7578 7.75781L82.0391 3.39844H88.8594V10.2656H90.1406V14.2266H88.0625V12H82.2188V14.2266Z" fill="#FEFEFE"/>
</svg>
