<svg width="263" height="84" viewBox="0 0 263 84" fill="none" xmlns="http://www.w3.org/2000/svg">
<g filter="url(#filter0_b_2_4407)">
<path d="M0 0H263V84H0V0Z" fill="white" fill-opacity="0.2"/>
</g>
<path d="M26.8174 18.3213L24.207 28H20.4902L16.4404 12.499H20.5117L22.6064 22.9727H22.6924L25.2812 12.499H28.4395L31.0283 22.9727H31.1143L33.209 12.499H37.2803L33.2305 28H29.5137L26.9033 18.3213H26.8174ZM43.3174 18.4932C42.7087 18.4932 42.1966 18.6973 41.7812 19.1055C41.3659 19.5137 41.1331 20.0365 41.083 20.6738H45.5303C45.4945 20.015 45.2725 19.4886 44.8643 19.0947C44.4632 18.6937 43.9476 18.4932 43.3174 18.4932ZM45.6162 24.2402H49.0537C48.8675 25.4648 48.2624 26.4424 47.2383 27.1729C46.2214 27.8962 44.9395 28.2578 43.3926 28.2578C41.502 28.2578 40.0195 27.71 38.9453 26.6143C37.8711 25.5186 37.334 24.0075 37.334 22.0811C37.334 20.1546 37.8675 18.6257 38.9346 17.4941C40.0016 16.3555 41.4447 15.7861 43.2637 15.7861C45.0469 15.7861 46.4684 16.3304 47.5283 17.4189C48.5954 18.5003 49.1289 19.9505 49.1289 21.7695V22.8545H41.04V23.0908C41.04 23.8213 41.262 24.4157 41.7061 24.874C42.1501 25.3252 42.7301 25.5508 43.4463 25.5508C43.9762 25.5508 44.4346 25.4362 44.8213 25.207C45.208 24.9707 45.473 24.6484 45.6162 24.2402ZM50.7295 28V11.7256H54.5322V28H50.7295ZM67.7988 20.7275H64.3076C64.2432 20.1045 64.0247 19.6104 63.6523 19.2451C63.2871 18.8727 62.818 18.6865 62.2451 18.6865C61.5433 18.6865 60.9919 18.9801 60.5908 19.5674C60.1969 20.1475 60 20.9639 60 22.0166C60 23.0837 60.1969 23.9072 60.5908 24.4873C60.9847 25.0602 61.5361 25.3467 62.2451 25.3467C62.8252 25.3467 63.2943 25.1784 63.6523 24.8418C64.0176 24.498 64.236 24.0146 64.3076 23.3916H67.8096C67.7523 24.8955 67.2188 26.0843 66.209 26.958C65.2064 27.8245 63.8708 28.2578 62.2021 28.2578C60.333 28.2578 58.8577 27.7028 57.7764 26.5928C56.695 25.4827 56.1543 23.9574 56.1543 22.0166C56.1543 20.0973 56.695 18.5791 57.7764 17.4619C58.8577 16.3447 60.3258 15.7861 62.1807 15.7861C63.8421 15.7861 65.1777 16.2373 66.1875 17.1396C67.2044 18.042 67.7415 19.238 67.7988 20.7275ZM79.4541 26.6143C78.3727 27.71 76.8831 28.2578 74.9854 28.2578C73.0876 28.2578 71.598 27.71 70.5166 26.6143C69.4352 25.5114 68.8945 23.9788 68.8945 22.0166C68.8945 20.0902 69.4424 18.5719 70.5381 17.4619C71.6338 16.3447 73.1162 15.7861 74.9854 15.7861C76.8617 15.7861 78.3441 16.3411 79.4326 17.4512C80.5283 18.554 81.0762 20.0758 81.0762 22.0166C81.0762 23.986 80.5355 25.5186 79.4541 26.6143ZM73.3418 24.5625C73.7357 25.1569 74.2835 25.4541 74.9854 25.4541C75.6872 25.4541 76.235 25.1569 76.6289 24.5625C77.0228 23.9609 77.2197 23.1123 77.2197 22.0166C77.2197 20.9495 77.0192 20.1117 76.6182 19.5029C76.2171 18.8942 75.6729 18.5898 74.9854 18.5898C74.2907 18.5898 73.7428 18.8942 73.3418 19.5029C72.9479 20.1045 72.751 20.9424 72.751 22.0166C72.751 23.1123 72.9479 23.9609 73.3418 24.5625ZM82.6123 28V16.0439H86.3076V18.3428H86.3828C86.6191 17.5765 87.0452 16.9678 87.6611 16.5166C88.277 16.0654 88.9896 15.8398 89.7988 15.8398C90.6868 15.8398 91.4209 16.0618 92.001 16.5059C92.5811 16.9427 92.957 17.5658 93.1289 18.375H93.2041C93.4404 17.6016 93.8916 16.9857 94.5576 16.5273C95.2308 16.069 96.0114 15.8398 96.8994 15.8398C98.0667 15.8398 99.012 16.2158 99.7354 16.9678C100.459 17.7126 100.82 18.6901 100.82 19.9004V28H97.0176V20.8672C97.0176 20.2298 96.8708 19.75 96.5771 19.4277C96.2907 19.0983 95.8646 18.9336 95.2988 18.9336C94.7617 18.9336 94.332 19.1126 94.0098 19.4707C93.6947 19.8288 93.5371 20.3086 93.5371 20.9102V28H89.9062V20.8135C89.9062 20.2119 89.7559 19.75 89.4551 19.4277C89.1615 19.0983 88.7389 18.9336 88.1875 18.9336C87.6576 18.9336 87.2279 19.1162 86.8984 19.4814C86.5762 19.8467 86.415 20.3301 86.415 20.9316V28H82.6123ZM108.286 18.4932C107.677 18.4932 107.165 18.6973 106.75 19.1055C106.335 19.5137 106.102 20.0365 106.052 20.6738H110.499C110.463 20.015 110.241 19.4886 109.833 19.0947C109.432 18.6937 108.916 18.4932 108.286 18.4932ZM110.585 24.2402H114.022C113.836 25.4648 113.231 26.4424 112.207 27.1729C111.19 27.8962 109.908 28.2578 108.361 28.2578C106.471 28.2578 104.988 27.71 103.914 26.6143C102.84 25.5186 102.303 24.0075 102.303 22.0811C102.303 20.1546 102.836 18.6257 103.903 17.4941C104.97 16.3555 106.413 15.7861 108.232 15.7861C110.016 15.7861 111.437 16.3304 112.497 17.4189C113.564 18.5003 114.098 19.9505 114.098 21.7695V22.8545H106.009V23.0908C106.009 23.8213 106.231 24.4157 106.675 24.874C107.119 25.3252 107.699 25.5508 108.415 25.5508C108.945 25.5508 109.403 25.4362 109.79 25.207C110.177 24.9707 110.442 24.6484 110.585 24.2402ZM121.037 13.4014H124.84V16.0439H126.999V18.8584H124.84V23.9609C124.84 24.7988 125.302 25.2178 126.226 25.2178C126.491 25.2178 126.748 25.1999 126.999 25.1641V27.8711C126.562 27.9714 126.004 28.0215 125.323 28.0215C123.791 28.0215 122.691 27.7673 122.025 27.2588C121.367 26.7432 121.037 25.8981 121.037 24.7236V18.8584H119.437V16.0439H121.037V13.4014ZM138.751 26.6143C137.67 27.71 136.18 28.2578 134.282 28.2578C132.384 28.2578 130.895 27.71 129.813 26.6143C128.732 25.5114 128.191 23.9788 128.191 22.0166C128.191 20.0902 128.739 18.5719 129.835 17.4619C130.931 16.3447 132.413 15.7861 134.282 15.7861C136.159 15.7861 137.641 16.3411 138.729 17.4512C139.825 18.554 140.373 20.0758 140.373 22.0166C140.373 23.986 139.832 25.5186 138.751 26.6143ZM132.639 24.5625C133.033 25.1569 133.58 25.4541 134.282 25.4541C134.984 25.4541 135.532 25.1569 135.926 24.5625C136.32 23.9609 136.517 23.1123 136.517 22.0166C136.517 20.9495 136.316 20.1117 135.915 19.5029C135.514 18.8942 134.97 18.5898 134.282 18.5898C133.588 18.5898 133.04 18.8942 132.639 19.5029C132.245 20.1045 132.048 20.9424 132.048 22.0166C132.048 23.1123 132.245 23.9609 132.639 24.5625ZM165.961 28.2686C163.626 28.2686 161.786 27.5632 160.439 26.1523C159.1 24.7344 158.431 22.765 158.431 20.2441C158.431 17.7305 159.104 15.7682 160.45 14.3574C161.797 12.9395 163.633 12.2305 165.961 12.2305C167.257 12.2305 168.432 12.4919 169.484 13.0146C170.537 13.5303 171.371 14.2607 171.987 15.2061C172.61 16.1442 172.94 17.2148 172.976 18.418H169.184C169.09 17.5085 168.747 16.778 168.152 16.2266C167.558 15.668 166.827 15.3887 165.961 15.3887C164.88 15.3887 164.024 15.8219 163.394 16.6885C162.763 17.555 162.448 18.7367 162.448 20.2334C162.448 21.7516 162.763 22.944 163.394 23.8105C164.024 24.6771 164.883 25.1104 165.972 25.1104C166.838 25.1104 167.562 24.8454 168.142 24.3154C168.729 23.7855 169.083 23.0658 169.205 22.1562H172.997C172.904 23.9896 172.209 25.4684 170.913 26.5928C169.617 27.71 167.966 28.2686 165.961 28.2686ZM184.813 26.6143C183.732 27.71 182.243 28.2578 180.345 28.2578C178.447 28.2578 176.957 27.71 175.876 26.6143C174.795 25.5114 174.254 23.9788 174.254 22.0166C174.254 20.0902 174.802 18.5719 175.897 17.4619C176.993 16.3447 178.476 15.7861 180.345 15.7861C182.221 15.7861 183.703 16.3411 184.792 17.4512C185.888 18.554 186.436 20.0758 186.436 22.0166C186.436 23.986 185.895 25.5186 184.813 26.6143ZM178.701 24.5625C179.095 25.1569 179.643 25.4541 180.345 25.4541C181.047 25.4541 181.594 25.1569 181.988 24.5625C182.382 23.9609 182.579 23.1123 182.579 22.0166C182.579 20.9495 182.379 20.1117 181.978 19.5029C181.576 18.8942 181.032 18.5898 180.345 18.5898C179.65 18.5898 179.102 18.8942 178.701 19.5029C178.307 20.1045 178.11 20.9424 178.11 22.0166C178.11 23.1123 178.307 23.9609 178.701 24.5625ZM188.928 28V18.8584H187.327V16.0439H188.928V15.002C188.928 13.8275 189.25 12.9896 189.895 12.4883C190.539 11.9798 191.62 11.7256 193.139 11.7256C193.669 11.7256 194.227 11.765 194.814 11.8438V14.3574C194.549 14.3073 194.259 14.2822 193.944 14.2822C193.486 14.2822 193.153 14.3646 192.945 14.5293C192.738 14.6868 192.634 14.9411 192.634 15.292V16.0439H194.825V18.8584H192.73V28H188.928ZM197.414 28V18.8584H195.813V16.0439H197.414V15.002C197.414 13.8275 197.736 12.9896 198.381 12.4883C199.025 11.9798 200.107 11.7256 201.625 11.7256C202.155 11.7256 202.714 11.765 203.301 11.8438V14.3574C203.036 14.3073 202.746 14.2822 202.431 14.2822C201.972 14.2822 201.639 14.3646 201.432 14.5293C201.224 14.6868 201.12 14.9411 201.12 15.292V16.0439H203.312V18.8584H201.217V28H197.414ZM210.337 18.4932C209.728 18.4932 209.216 18.6973 208.801 19.1055C208.385 19.5137 208.153 20.0365 208.103 20.6738H212.55C212.514 20.015 212.292 19.4886 211.884 19.0947C211.483 18.6937 210.967 18.4932 210.337 18.4932ZM212.636 24.2402H216.073C215.887 25.4648 215.282 26.4424 214.258 27.1729C213.241 27.8962 211.959 28.2578 210.412 28.2578C208.521 28.2578 207.039 27.71 205.965 26.6143C204.891 25.5186 204.354 24.0075 204.354 22.0811C204.354 20.1546 204.887 18.6257 205.954 17.4941C207.021 16.3555 208.464 15.7861 210.283 15.7861C212.066 15.7861 213.488 16.3304 214.548 17.4189C215.615 18.5003 216.148 19.9505 216.148 21.7695V22.8545H208.06V23.0908C208.06 23.8213 208.282 24.4157 208.726 24.874C209.17 25.3252 209.75 25.5508 210.466 25.5508C210.996 25.5508 211.454 25.4362 211.841 25.207C212.228 24.9707 212.493 24.6484 212.636 24.2402ZM223.292 18.4932C222.683 18.4932 222.171 18.6973 221.756 19.1055C221.34 19.5137 221.108 20.0365 221.058 20.6738H225.505C225.469 20.015 225.247 19.4886 224.839 19.0947C224.438 18.6937 223.922 18.4932 223.292 18.4932ZM225.591 24.2402H229.028C228.842 25.4648 228.237 26.4424 227.213 27.1729C226.196 27.8962 224.914 28.2578 223.367 28.2578C221.477 28.2578 219.994 27.71 218.92 26.6143C217.846 25.5186 217.309 24.0075 217.309 22.0811C217.309 20.1546 217.842 18.6257 218.909 17.4941C219.976 16.3555 221.419 15.7861 223.238 15.7861C225.021 15.7861 226.443 16.3304 227.503 17.4189C228.57 18.5003 229.104 19.9505 229.104 21.7695V22.8545H221.015V23.0908C221.015 23.8213 221.237 24.4157 221.681 24.874C222.125 25.3252 222.705 25.5508 223.421 25.5508C223.951 25.5508 224.409 25.4362 224.796 25.207C225.183 24.9707 225.448 24.6484 225.591 24.2402ZM231.499 12.499H235.409L235.076 22.9189H231.832L231.499 12.499ZM233.454 28.3545C232.888 28.3545 232.405 28.1683 232.004 27.7959C231.61 27.4163 231.413 26.958 231.413 26.4209C231.413 25.8838 231.61 25.429 232.004 25.0566C232.405 24.6842 232.888 24.498 233.454 24.498C234.013 24.498 234.489 24.6842 234.883 25.0566C235.284 25.429 235.484 25.8838 235.484 26.4209C235.484 26.958 235.284 27.4163 234.883 27.7959C234.489 28.1683 234.013 28.3545 233.454 28.3545Z" fill="white"/>
<path d="M150.514 28H146.571V12.499H157.12V15.6787H150.514V19.2021H156.519V22.2207H150.514V28Z" fill="#00FBF4"/>
<g opacity="0.9">
<path d="M18.8027 48.5977V47.3193H20.1289C20.694 47.3193 21.152 47.1689 21.5029 46.8682C21.8584 46.5674 22.0361 46.18 22.0361 45.7061C22.0361 45.2321 21.8698 44.8584 21.5371 44.585C21.209 44.3115 20.7624 44.1748 20.1973 44.1748C19.623 44.1748 19.1582 44.3161 18.8027 44.5986C18.4518 44.8766 18.2536 45.2617 18.208 45.7539H16.7588C16.8089 44.8698 17.1462 44.1725 17.7705 43.6621C18.3949 43.1517 19.2197 42.8965 20.2451 42.8965C21.2158 42.8965 22.0088 43.1449 22.624 43.6416C23.2393 44.1338 23.5469 44.7695 23.5469 45.5488C23.5469 46.1003 23.376 46.5856 23.0342 47.0049C22.6969 47.4196 22.2549 47.693 21.708 47.8252V47.8799C22.3688 47.9619 22.8906 48.2217 23.2734 48.6592C23.6562 49.0967 23.8477 49.6504 23.8477 50.3203C23.8477 51.1497 23.5013 51.8447 22.8086 52.4053C22.1159 52.9613 21.2523 53.2393 20.2178 53.2393C19.1468 53.2393 18.2718 52.9749 17.5928 52.4463C16.9137 51.9176 16.5514 51.2181 16.5059 50.3477H17.9824C18.028 50.8307 18.2513 51.2181 18.6523 51.5098C19.0579 51.7969 19.5775 51.9404 20.2109 51.9404C20.8262 51.9404 21.3229 51.7832 21.7012 51.4688C22.084 51.1543 22.2754 50.7464 22.2754 50.2451C22.2754 49.7301 22.0885 49.3268 21.7148 49.0352C21.3457 48.7435 20.8307 48.5977 20.1699 48.5977H18.8027ZM27.7578 51.8926C28.3092 51.8926 28.7695 51.7354 29.1387 51.4209C29.5078 51.1019 29.6924 50.6986 29.6924 50.2109V49.6299L27.8877 49.7529C26.8623 49.8167 26.3496 50.1813 26.3496 50.8467C26.3496 51.1657 26.4772 51.4209 26.7324 51.6123C26.9876 51.7992 27.3294 51.8926 27.7578 51.8926ZM27.3613 53.0752C26.6185 53.0752 26.0146 52.8747 25.5498 52.4736C25.085 52.068 24.8525 51.5348 24.8525 50.874C24.8525 50.2269 25.0941 49.7188 25.5771 49.3496C26.0648 48.9805 26.7689 48.7663 27.6895 48.707L29.6924 48.5908V48.0166C29.6924 47.5928 29.5557 47.2692 29.2822 47.0459C29.0133 46.818 28.6305 46.7041 28.1338 46.7041C27.7327 46.7041 27.3932 46.7998 27.1152 46.9912C26.8418 47.1826 26.6732 47.4401 26.6094 47.7637H25.2217C25.2445 47.1074 25.5339 46.5628 26.0898 46.1299C26.6458 45.6969 27.3408 45.4805 28.1748 45.4805C29.0817 45.4805 29.804 45.7015 30.3418 46.1436C30.8841 46.5856 31.1553 47.1735 31.1553 47.9072V53H29.7402V51.7627H29.7061C29.501 52.1637 29.1865 52.4827 28.7627 52.7197C28.3389 52.9567 27.8717 53.0752 27.3613 53.0752ZM36.542 45.501C37.4899 45.501 38.2487 45.8451 38.8184 46.5332C39.3926 47.2214 39.6797 48.1396 39.6797 49.2881C39.6797 50.432 39.3949 51.3503 38.8252 52.043C38.2601 52.7311 37.5104 53.0752 36.5762 53.0752C36.043 53.0752 35.5736 52.9635 35.168 52.7402C34.7624 52.5124 34.4479 52.1934 34.2246 51.7832H34.1973V55.4268H32.7139V45.5762H34.1426V46.8066H34.1768C34.3864 46.4056 34.7031 46.0889 35.127 45.8564C35.5553 45.6195 36.027 45.501 36.542 45.501ZM36.166 51.8174C36.7676 51.8174 37.2507 51.5872 37.6152 51.127C37.9798 50.6667 38.1621 50.0537 38.1621 49.2881C38.1621 48.5225 37.9798 47.9095 37.6152 47.4492C37.2507 46.9889 36.7676 46.7588 36.166 46.7588C35.5781 46.7588 35.1019 46.9912 34.7373 47.4561C34.3727 47.9209 34.1882 48.5316 34.1836 49.2881C34.1882 50.0492 34.3704 50.6621 34.7305 51.127C35.0951 51.5872 35.5736 51.8174 36.166 51.8174ZM44.1025 46.6904C43.5693 46.6904 43.125 46.8682 42.7695 47.2236C42.4186 47.5791 42.2227 48.0417 42.1816 48.6113H45.9482C45.93 48.0326 45.7523 47.5677 45.415 47.2168C45.0778 46.8659 44.6403 46.6904 44.1025 46.6904ZM45.9414 50.8262H47.3564C47.2516 51.4915 46.903 52.0361 46.3105 52.46C45.7181 52.8792 45.0049 53.0889 44.1709 53.0889C43.0954 53.0889 42.2432 52.7516 41.6143 52.0771C40.9899 51.3981 40.6777 50.4775 40.6777 49.3154C40.6777 48.1533 40.9899 47.2236 41.6143 46.5264C42.2386 45.8291 43.0703 45.4805 44.1094 45.4805C45.1302 45.4805 45.9391 45.8109 46.5361 46.4717C47.1331 47.1279 47.4316 48.0189 47.4316 49.1445V49.6641H42.1748V49.7529C42.1748 50.3955 42.3594 50.9128 42.7285 51.3047C43.0977 51.6921 43.5876 51.8857 44.1982 51.8857C44.6312 51.8857 45.0049 51.79 45.3193 51.5986C45.6338 51.4072 45.8411 51.1497 45.9414 50.8262ZM53.6523 46.752H50.2207V53H48.751V45.5762H53.6523V46.752ZM56.4004 53H54.9443V45.5762H56.4004V50.8262H56.4551L60.0029 45.5762H61.459V53H60.0029V47.7295H59.9482L56.4004 53ZM69.4365 47.9414H68.0078C67.9121 47.5768 67.7139 47.2852 67.4131 47.0664C67.1123 46.8431 66.734 46.7314 66.2783 46.7314C65.6768 46.7314 65.1937 46.9639 64.8291 47.4287C64.4691 47.8936 64.2891 48.5133 64.2891 49.2881C64.2891 50.0811 64.4714 50.7054 64.8359 51.1611C65.2005 51.6169 65.6836 51.8447 66.2852 51.8447C66.7363 51.8447 67.11 51.7422 67.4062 51.5371C67.707 51.332 67.9121 51.0381 68.0215 50.6553H69.4502C69.3363 51.389 68.9922 51.9792 68.418 52.4258C67.8483 52.8678 67.1351 53.0889 66.2783 53.0889C65.221 53.0889 64.3757 52.7493 63.7422 52.0703C63.1087 51.3867 62.792 50.4593 62.792 49.2881C62.792 48.1351 63.1087 47.2122 63.7422 46.5195C64.3757 45.8268 65.2165 45.4805 66.2646 45.4805C67.1396 45.4805 67.8597 45.7152 68.4248 46.1846C68.9945 46.6494 69.3317 47.235 69.4365 47.9414ZM76.1973 45.5762V46.752H73.8525V53H72.3896V46.752H70.0449V45.5762H76.1973ZM81.1396 45.501C82.0876 45.501 82.8464 45.8451 83.416 46.5332C83.9902 47.2214 84.2773 48.1396 84.2773 49.2881C84.2773 50.432 83.9925 51.3503 83.4229 52.043C82.8577 52.7311 82.1081 53.0752 81.1738 53.0752C80.6406 53.0752 80.1712 52.9635 79.7656 52.7402C79.36 52.5124 79.0456 52.1934 78.8223 51.7832H78.7949V55.4268H77.3115V45.5762H78.7402V46.8066H78.7744C78.984 46.4056 79.3008 46.0889 79.7246 45.8564C80.153 45.6195 80.6247 45.501 81.1396 45.501ZM80.7637 51.8174C81.3652 51.8174 81.8483 51.5872 82.2129 51.127C82.5775 50.6667 82.7598 50.0537 82.7598 49.2881C82.7598 48.5225 82.5775 47.9095 82.2129 47.4492C81.8483 46.9889 81.3652 46.7588 80.7637 46.7588C80.1758 46.7588 79.6995 46.9912 79.335 47.4561C78.9704 47.9209 78.7858 48.5316 78.7812 49.2881C78.7858 50.0492 78.9681 50.6621 79.3281 51.127C79.6927 51.5872 80.1712 51.8174 80.7637 51.8174ZM87.0664 53H85.6104V45.5762H87.0664V50.8262H87.1211L90.6689 45.5762H92.125V53H90.6689V47.7295H90.6143L87.0664 53ZM97.6143 45.501C98.5622 45.501 99.321 45.8451 99.8906 46.5332C100.465 47.2214 100.752 48.1396 100.752 49.2881C100.752 50.432 100.467 51.3503 99.8975 52.043C99.3324 52.7311 98.5827 53.0752 97.6484 53.0752C97.1152 53.0752 96.6458 52.9635 96.2402 52.7402C95.8346 52.5124 95.5202 52.1934 95.2969 51.7832H95.2695V55.4268H93.7861V45.5762H95.2148V46.8066H95.249C95.4587 46.4056 95.7754 46.0889 96.1992 45.8564C96.6276 45.6195 97.0993 45.501 97.6143 45.501ZM97.2383 51.8174C97.8398 51.8174 98.3229 51.5872 98.6875 51.127C99.0521 50.6667 99.2344 50.0537 99.2344 49.2881C99.2344 48.5225 99.0521 47.9095 98.6875 47.4492C98.3229 46.9889 97.8398 46.7588 97.2383 46.7588C96.6504 46.7588 96.1742 46.9912 95.8096 47.4561C95.445 47.9209 95.2604 48.5316 95.2559 49.2881C95.2604 50.0492 95.4427 50.6621 95.8027 51.127C96.1673 51.5872 96.6458 51.8174 97.2383 51.8174ZM102.803 55.7002C102.557 55.7002 102.356 55.6865 102.201 55.6592V54.4561C102.292 54.4788 102.45 54.4902 102.673 54.4902C103.028 54.4902 103.309 54.4059 103.514 54.2373C103.723 54.0732 103.892 53.7952 104.02 53.4033L104.136 53.0205L101.442 45.5762H103.035L104.942 51.6465H104.977L106.884 45.5762H108.442L105.66 53.3418C105.341 54.2305 104.974 54.8457 104.56 55.1875C104.149 55.5293 103.564 55.7002 102.803 55.7002ZM110.486 42.3154H111.484C111.489 42.7074 111.607 43.0309 111.84 43.2861C112.072 43.5413 112.378 43.6689 112.756 43.6689C113.139 43.6689 113.446 43.5413 113.679 43.2861C113.911 43.0309 114.03 42.7074 114.034 42.3154H115.032C115.032 42.9626 114.823 43.4867 114.403 43.8877C113.984 44.2842 113.435 44.4824 112.756 44.4824C112.081 44.4824 111.535 44.2842 111.115 43.8877C110.696 43.4867 110.486 42.9626 110.486 42.3154ZM110.938 53H109.481V45.5762H110.938V50.8262H110.992L114.54 45.5762H115.996V53H114.54V47.7295H114.485L110.938 53ZM123.27 45.5762V46.752H120.925V53H119.462V46.752H117.117V45.5762H123.27ZM127.364 46.6904C126.831 46.6904 126.387 46.8682 126.031 47.2236C125.68 47.5791 125.484 48.0417 125.443 48.6113H129.21C129.192 48.0326 129.014 47.5677 128.677 47.2168C128.34 46.8659 127.902 46.6904 127.364 46.6904ZM129.203 50.8262H130.618C130.513 51.4915 130.165 52.0361 129.572 52.46C128.98 52.8792 128.267 53.0889 127.433 53.0889C126.357 53.0889 125.505 52.7516 124.876 52.0771C124.252 51.3981 123.939 50.4775 123.939 49.3154C123.939 48.1533 124.252 47.2236 124.876 46.5264C125.5 45.8291 126.332 45.4805 127.371 45.4805C128.392 45.4805 129.201 45.8109 129.798 46.4717C130.395 47.1279 130.693 48.0189 130.693 49.1445V49.6641H125.437V49.7529C125.437 50.3955 125.621 50.9128 125.99 51.3047C126.359 51.6921 126.849 51.8857 127.46 51.8857C127.893 51.8857 128.267 51.79 128.581 51.5986C128.896 51.4072 129.103 51.1497 129.203 50.8262ZM138.329 47.9414H136.9C136.805 47.5768 136.606 47.2852 136.306 47.0664C136.005 46.8431 135.627 46.7314 135.171 46.7314C134.569 46.7314 134.086 46.9639 133.722 47.4287C133.362 47.8936 133.182 48.5133 133.182 49.2881C133.182 50.0811 133.364 50.7054 133.729 51.1611C134.093 51.6169 134.576 51.8447 135.178 51.8447C135.629 51.8447 136.003 51.7422 136.299 51.5371C136.6 51.332 136.805 51.0381 136.914 50.6553H138.343C138.229 51.389 137.885 51.9792 137.311 52.4258C136.741 52.8678 136.028 53.0889 135.171 53.0889C134.114 53.0889 133.268 52.7493 132.635 52.0703C132.001 51.3867 131.685 50.4593 131.685 49.2881C131.685 48.1351 132.001 47.2122 132.635 46.5195C133.268 45.8268 134.109 45.4805 135.157 45.4805C136.032 45.4805 136.752 45.7152 137.317 46.1846C137.887 46.6494 138.224 47.235 138.329 47.9414ZM142.355 49.042H141.057V51.8311H142.355C142.802 51.8311 143.158 51.7035 143.422 51.4482C143.691 51.193 143.825 50.8558 143.825 50.4365C143.825 50.0127 143.691 49.6755 143.422 49.4248C143.158 49.1696 142.802 49.042 142.355 49.042ZM139.587 53V45.5762H141.057V47.8799H142.472C143.333 47.8799 144.019 48.11 144.529 48.5703C145.04 49.0306 145.295 49.6527 145.295 50.4365C145.295 51.2204 145.04 51.8447 144.529 52.3096C144.019 52.7699 143.333 53 142.472 53H139.587ZM152.896 46.6631H151.256V48.6318H152.739C153.61 48.6318 154.045 48.3014 154.045 47.6406C154.045 47.3262 153.947 47.0846 153.751 46.916C153.555 46.7474 153.27 46.6631 152.896 46.6631ZM152.842 49.6846H151.256V51.9062H153.026C153.459 51.9062 153.79 51.8128 154.018 51.626C154.245 51.4391 154.359 51.1657 154.359 50.8057C154.359 50.0583 153.854 49.6846 152.842 49.6846ZM149.8 53V45.5762H153.184C153.899 45.5762 154.462 45.7448 154.872 46.082C155.287 46.4193 155.494 46.8796 155.494 47.4629C155.494 47.8503 155.373 48.1989 155.132 48.5088C154.89 48.8141 154.592 49.001 154.236 49.0693V49.124C154.71 49.1878 155.093 49.3792 155.385 49.6982C155.676 50.0127 155.822 50.4001 155.822 50.8604C155.822 51.5166 155.588 52.0384 155.118 52.4258C154.653 52.8086 154.02 53 153.218 53H149.8ZM165.304 53V46.752H161.893V53H160.423V45.5762H166.773V53H165.304ZM172.263 45.501C173.211 45.501 173.969 45.8451 174.539 46.5332C175.113 47.2214 175.4 48.1396 175.4 49.2881C175.4 50.432 175.116 51.3503 174.546 52.043C173.981 52.7311 173.231 53.0752 172.297 53.0752C171.764 53.0752 171.294 52.9635 170.889 52.7402C170.483 52.5124 170.169 52.1934 169.945 51.7832H169.918V55.4268H168.435V45.5762H169.863V46.8066H169.897C170.107 46.4056 170.424 46.0889 170.848 45.8564C171.276 45.6195 171.748 45.501 172.263 45.501ZM171.887 51.8174C172.488 51.8174 172.971 51.5872 173.336 51.127C173.701 50.6667 173.883 50.0537 173.883 49.2881C173.883 48.5225 173.701 47.9095 173.336 47.4492C172.971 46.9889 172.488 46.7588 171.887 46.7588C171.299 46.7588 170.823 46.9912 170.458 47.4561C170.093 47.9209 169.909 48.5316 169.904 49.2881C169.909 50.0492 170.091 50.6621 170.451 51.127C170.816 51.5872 171.294 51.8174 171.887 51.8174ZM178.189 53H176.733V45.5762H178.189V50.8262H178.244L181.792 45.5762H183.248V53H181.792V47.7295H181.737L178.189 53ZM187.11 49.6367C187.078 50.0742 187.031 50.4639 186.967 50.8057C186.908 51.1429 186.821 51.4574 186.707 51.749C186.593 52.0407 186.452 52.2822 186.283 52.4736C186.115 52.6605 185.905 52.8063 185.654 52.9111C185.408 53.016 185.123 53.0684 184.8 53.0684C184.595 53.0684 184.426 53.0433 184.294 52.9932V51.6875C184.417 51.724 184.547 51.7422 184.684 51.7422C185.03 51.7422 185.283 51.5576 185.442 51.1885C185.606 50.8193 185.711 50.2816 185.757 49.5752L186.023 45.5762H191.15V53H189.681V46.752H187.322L187.11 49.6367ZM198.547 52.0635C197.918 52.7471 197.066 53.0889 195.99 53.0889C194.915 53.0889 194.06 52.7471 193.427 52.0635C192.793 51.3799 192.477 50.4548 192.477 49.2881C192.477 48.126 192.793 47.2008 193.427 46.5127C194.065 45.8245 194.919 45.4805 195.99 45.4805C197.061 45.4805 197.913 45.8245 198.547 46.5127C199.18 47.1963 199.497 48.1214 199.497 49.2881C199.497 50.4548 199.18 51.3799 198.547 52.0635ZM194.514 51.1816C194.869 51.6328 195.361 51.8584 195.99 51.8584C196.619 51.8584 197.109 51.6328 197.46 51.1816C197.815 50.7305 197.993 50.0993 197.993 49.2881C197.993 48.4769 197.815 47.8457 197.46 47.3945C197.109 46.9388 196.619 46.7109 195.99 46.7109C195.361 46.7109 194.869 46.9388 194.514 47.3945C194.158 47.8503 193.98 48.4814 193.98 49.2881C193.98 50.0947 194.158 50.7259 194.514 51.1816ZM207.536 49.0693L210.742 53H208.903L206.128 49.5479H206.073V53H204.617V49.5479H204.562L201.787 53H199.976L203.154 49.0898L200.051 45.5762H201.821L204.562 48.7686H204.617V45.5762H206.073V48.7686H206.128L208.869 45.5762H210.626L207.536 49.0693ZM214.632 46.6904C214.099 46.6904 213.654 46.8682 213.299 47.2236C212.948 47.5791 212.752 48.0417 212.711 48.6113H216.478C216.459 48.0326 216.282 47.5677 215.944 47.2168C215.607 46.8659 215.17 46.6904 214.632 46.6904ZM216.471 50.8262H217.886C217.781 51.4915 217.432 52.0361 216.84 52.46C216.247 52.8792 215.534 53.0889 214.7 53.0889C213.625 53.0889 212.772 52.7516 212.144 52.0771C211.519 51.3981 211.207 50.4775 211.207 49.3154C211.207 48.1533 211.519 47.2236 212.144 46.5264C212.768 45.8291 213.6 45.4805 214.639 45.4805C215.66 45.4805 216.468 45.8109 217.065 46.4717C217.662 47.1279 217.961 48.0189 217.961 49.1445V49.6641H212.704V49.7529C212.704 50.3955 212.889 50.9128 213.258 51.3047C213.627 51.6921 214.117 51.8857 214.728 51.8857C215.16 51.8857 215.534 51.79 215.849 51.5986C216.163 51.4072 216.37 51.1497 216.471 50.8262ZM224.229 53V49.7461H220.75V53H219.28V45.5762H220.75V48.5703H224.229V45.5762H225.699V53H224.229ZM228.816 53H227.36V45.5762H228.816V50.8262H228.871L232.419 45.5762H233.875V53H232.419V47.7295H232.364L228.816 53ZM236.992 53H235.536V45.5762H236.992V50.8262H237.047L240.595 45.5762H242.051V53H240.595V47.7295H240.54L236.992 53ZM251.389 49.7529H246.904V48.4199H251.389V49.7529ZM21.7695 69.8242V64.7451H19.1514L18.9395 67.6367C18.8711 68.6165 18.6751 69.3275 18.3516 69.7695V69.8242H21.7695ZM17.4971 72.9482H16.1367V69.8242H16.7383C17.2305 69.5143 17.5176 68.7646 17.5996 67.5752L17.873 63.5762H23.2324V69.8242H24.3945V72.9482H23.0273V71H17.4971V72.9482ZM28.0176 69.8926C28.569 69.8926 29.0293 69.7354 29.3984 69.4209C29.7676 69.1019 29.9521 68.6986 29.9521 68.2109V67.6299L28.1475 67.7529C27.1221 67.8167 26.6094 68.1813 26.6094 68.8467C26.6094 69.1657 26.737 69.4209 26.9922 69.6123C27.2474 69.7992 27.5892 69.8926 28.0176 69.8926ZM27.6211 71.0752C26.8783 71.0752 26.2744 70.8747 25.8096 70.4736C25.3447 70.068 25.1123 69.5348 25.1123 68.874C25.1123 68.2269 25.3538 67.7188 25.8369 67.3496C26.3245 66.9805 27.0286 66.7663 27.9492 66.707L29.9521 66.5908V66.0166C29.9521 65.5928 29.8154 65.2692 29.542 65.0459C29.2731 64.818 28.8903 64.7041 28.3936 64.7041C27.9925 64.7041 27.653 64.7998 27.375 64.9912C27.1016 65.1826 26.9329 65.4401 26.8691 65.7637H25.4814C25.5042 65.1074 25.7936 64.5628 26.3496 64.1299C26.9056 63.6969 27.6006 63.4805 28.4346 63.4805C29.3415 63.4805 30.0638 63.7015 30.6016 64.1436C31.1439 64.5856 31.415 65.1735 31.415 65.9072V71H30V69.7627H29.9658C29.7607 70.1637 29.4463 70.4827 29.0225 70.7197C28.5986 70.9567 28.1315 71.0752 27.6211 71.0752ZM36.8018 63.501C37.7497 63.501 38.5085 63.8451 39.0781 64.5332C39.6523 65.2214 39.9395 66.1396 39.9395 67.2881C39.9395 68.432 39.6546 69.3503 39.085 70.043C38.5199 70.7311 37.7702 71.0752 36.8359 71.0752C36.3027 71.0752 35.8333 70.9635 35.4277 70.7402C35.0221 70.5124 34.7077 70.1934 34.4844 69.7832H34.457V73.4268H32.9736V63.5762H34.4023V64.8066H34.4365C34.6462 64.4056 34.9629 64.0889 35.3867 63.8564C35.8151 63.6195 36.2868 63.501 36.8018 63.501ZM36.4258 69.8174C37.0273 69.8174 37.5104 69.5872 37.875 69.127C38.2396 68.6667 38.4219 68.0537 38.4219 67.2881C38.4219 66.5225 38.2396 65.9095 37.875 65.4492C37.5104 64.9889 37.0273 64.7588 36.4258 64.7588C35.8379 64.7588 35.3617 64.9912 34.9971 65.4561C34.6325 65.9209 34.4479 66.5316 34.4434 67.2881C34.4479 68.0492 34.6302 68.6621 34.9902 69.127C35.3548 69.5872 35.8333 69.8174 36.4258 69.8174ZM42.7285 71H41.2725V63.5762H42.7285V68.8262H42.7832L46.3311 63.5762H47.7871V71H46.3311V65.7295H46.2764L42.7285 71ZM50.877 71H49.4482V63.5762H51.2939L53.7207 69.0723H53.7754L56.2158 63.5762H58.0068V71H56.5781V65.8252H56.5234L54.2676 70.7197H53.1807L50.9316 65.8252H50.877V71ZM130.481 71V67.7461H127.002V71H125.532V63.5762H127.002V66.5703H130.481V63.5762H131.951V71H130.481ZM136.189 69.8926C136.741 69.8926 137.201 69.7354 137.57 69.4209C137.939 69.1019 138.124 68.6986 138.124 68.2109V67.6299L136.319 67.7529C135.294 67.8167 134.781 68.1813 134.781 68.8467C134.781 69.1657 134.909 69.4209 135.164 69.6123C135.419 69.7992 135.761 69.8926 136.189 69.8926ZM135.793 71.0752C135.05 71.0752 134.446 70.8747 133.981 70.4736C133.517 70.068 133.284 69.5348 133.284 68.874C133.284 68.2269 133.526 67.7188 134.009 67.3496C134.496 66.9805 135.201 66.7663 136.121 66.707L138.124 66.5908V66.0166C138.124 65.5928 137.987 65.2692 137.714 65.0459C137.445 64.818 137.062 64.7041 136.565 64.7041C136.164 64.7041 135.825 64.7998 135.547 64.9912C135.273 65.1826 135.105 65.4401 135.041 65.7637H133.653C133.676 65.1074 133.965 64.5628 134.521 64.1299C135.077 63.6969 135.772 63.4805 136.606 63.4805C137.513 63.4805 138.236 63.7015 138.773 64.1436C139.316 64.5856 139.587 65.1735 139.587 65.9072V71H138.172V69.7627H138.138C137.933 70.1637 137.618 70.4827 137.194 70.7197C136.771 70.9567 136.303 71.0752 135.793 71.0752ZM147.469 64.6631H145.828V66.6318H147.312C148.182 66.6318 148.617 66.3014 148.617 65.6406C148.617 65.3262 148.519 65.0846 148.323 64.916C148.127 64.7474 147.842 64.6631 147.469 64.6631ZM147.414 67.6846H145.828V69.9062H147.599C148.032 69.9062 148.362 69.8128 148.59 69.626C148.818 69.4391 148.932 69.1657 148.932 68.8057C148.932 68.0583 148.426 67.6846 147.414 67.6846ZM144.372 71V63.5762H147.756C148.471 63.5762 149.034 63.7448 149.444 64.082C149.859 64.4193 150.066 64.8796 150.066 65.4629C150.066 65.8503 149.946 66.1989 149.704 66.5088C149.463 66.8141 149.164 67.001 148.809 67.0693V67.124C149.283 67.1878 149.665 67.3792 149.957 67.6982C150.249 68.0127 150.395 68.4001 150.395 68.8604C150.395 69.5166 150.16 70.0384 149.69 70.4258C149.226 70.8086 148.592 71 147.79 71H144.372ZM158.085 65.9414H156.656C156.561 65.5768 156.362 65.2852 156.062 65.0664C155.761 64.8431 155.382 64.7314 154.927 64.7314C154.325 64.7314 153.842 64.9639 153.478 65.4287C153.118 65.8936 152.938 66.5133 152.938 67.2881C152.938 68.0811 153.12 68.7054 153.484 69.1611C153.849 69.6169 154.332 69.8447 154.934 69.8447C155.385 69.8447 155.758 69.7422 156.055 69.5371C156.355 69.332 156.561 69.0381 156.67 68.6553H158.099C157.985 69.389 157.641 69.9792 157.066 70.4258C156.497 70.8678 155.784 71.0889 154.927 71.0889C153.869 71.0889 153.024 70.7493 152.391 70.0703C151.757 69.3867 151.44 68.4593 151.44 67.2881C151.44 66.1351 151.757 65.2122 152.391 64.5195C153.024 63.8268 153.865 63.4805 154.913 63.4805C155.788 63.4805 156.508 63.7152 157.073 64.1846C157.643 64.6494 157.98 65.235 158.085 65.9414ZM162.433 64.6904C161.899 64.6904 161.455 64.8682 161.1 65.2236C160.749 65.5791 160.553 66.0417 160.512 66.6113H164.278C164.26 66.0326 164.082 65.5677 163.745 65.2168C163.408 64.8659 162.97 64.6904 162.433 64.6904ZM164.271 68.8262H165.687C165.582 69.4915 165.233 70.0361 164.641 70.46C164.048 70.8792 163.335 71.0889 162.501 71.0889C161.425 71.0889 160.573 70.7516 159.944 70.0771C159.32 69.3981 159.008 68.4775 159.008 67.3154C159.008 66.1533 159.32 65.2236 159.944 64.5264C160.569 63.8291 161.4 63.4805 162.439 63.4805C163.46 63.4805 164.269 63.8109 164.866 64.4717C165.463 65.1279 165.762 66.0189 165.762 67.1445V67.6641H160.505V67.7529C160.505 68.3955 160.689 68.9128 161.059 69.3047C161.428 69.6921 161.918 69.8857 162.528 69.8857C162.961 69.8857 163.335 69.79 163.649 69.5986C163.964 69.4072 164.171 69.1497 164.271 68.8262ZM172.946 71.1367C172.08 71.1367 171.372 70.9408 170.82 70.5488C170.269 70.1523 169.959 69.6169 169.891 68.9424H171.354C171.431 69.266 171.606 69.5143 171.88 69.6875C172.158 69.8607 172.513 69.9473 172.946 69.9473C173.434 69.9473 173.812 69.8447 174.081 69.6396C174.354 69.43 174.491 69.1543 174.491 68.8125C174.491 68.0788 173.976 67.7119 172.946 67.7119H171.859V66.6113H172.926C173.814 66.6113 174.259 66.2764 174.259 65.6064C174.259 65.3057 174.147 65.0664 173.924 64.8887C173.705 64.7064 173.384 64.6152 172.96 64.6152C172.545 64.6152 172.206 64.6995 171.941 64.8682C171.677 65.0368 171.52 65.2692 171.47 65.5654H170.048C170.125 64.9092 170.424 64.3896 170.943 64.0068C171.463 63.624 172.133 63.4326 172.953 63.4326C173.828 63.4326 174.505 63.6172 174.983 63.9863C175.462 64.3555 175.701 64.8522 175.701 65.4766C175.701 65.8548 175.592 66.1921 175.373 66.4883C175.154 66.7799 174.863 66.9691 174.498 67.0557V67.1104C174.972 67.2243 175.332 67.4271 175.578 67.7188C175.829 68.0104 175.954 68.3704 175.954 68.7988C175.954 69.5052 175.681 70.0726 175.134 70.501C174.587 70.9248 173.858 71.1367 172.946 71.1367ZM179.898 69.8926C180.45 69.8926 180.91 69.7354 181.279 69.4209C181.648 69.1019 181.833 68.6986 181.833 68.2109V67.6299L180.028 67.7529C179.003 67.8167 178.49 68.1813 178.49 68.8467C178.49 69.1657 178.618 69.4209 178.873 69.6123C179.128 69.7992 179.47 69.8926 179.898 69.8926ZM179.502 71.0752C178.759 71.0752 178.155 70.8747 177.69 70.4736C177.226 70.068 176.993 69.5348 176.993 68.874C176.993 68.2269 177.235 67.7188 177.718 67.3496C178.205 66.9805 178.91 66.7663 179.83 66.707L181.833 66.5908V66.0166C181.833 65.5928 181.696 65.2692 181.423 65.0459C181.154 64.818 180.771 64.7041 180.274 64.7041C179.873 64.7041 179.534 64.7998 179.256 64.9912C178.982 65.1826 178.814 65.4401 178.75 65.7637H177.362C177.385 65.1074 177.674 64.5628 178.23 64.1299C178.786 63.6969 179.481 63.4805 180.315 63.4805C181.222 63.4805 181.945 63.7015 182.482 64.1436C183.025 64.5856 183.296 65.1735 183.296 65.9072V71H181.881V69.7627H181.847C181.642 70.1637 181.327 70.4827 180.903 70.7197C180.479 70.9567 180.012 71.0752 179.502 71.0752ZM187.794 67.0693L191.226 71H189.373L186.379 67.5479H186.324V71H184.854V63.5762H186.324V66.7686H186.379L189.339 63.5762H191.103L187.794 67.0693ZM194.596 69.8926C195.147 69.8926 195.607 69.7354 195.977 69.4209C196.346 69.1019 196.53 68.6986 196.53 68.2109V67.6299L194.726 67.7529C193.7 67.8167 193.188 68.1813 193.188 68.8467C193.188 69.1657 193.315 69.4209 193.57 69.6123C193.826 69.7992 194.167 69.8926 194.596 69.8926ZM194.199 71.0752C193.456 71.0752 192.853 70.8747 192.388 70.4736C191.923 70.068 191.69 69.5348 191.69 68.874C191.69 68.2269 191.932 67.7188 192.415 67.3496C192.903 66.9805 193.607 66.7663 194.527 66.707L196.53 66.5908V66.0166C196.53 65.5928 196.394 65.2692 196.12 65.0459C195.851 64.818 195.468 64.7041 194.972 64.7041C194.571 64.7041 194.231 64.7998 193.953 64.9912C193.68 65.1826 193.511 65.4401 193.447 65.7637H192.06C192.082 65.1074 192.372 64.5628 192.928 64.1299C193.484 63.6969 194.179 63.4805 195.013 63.4805C195.92 63.4805 196.642 63.7015 197.18 64.1436C197.722 64.5856 197.993 65.1735 197.993 65.9072V71H196.578V69.7627H196.544C196.339 70.1637 196.024 70.4827 195.601 70.7197C195.177 70.9567 194.71 71.0752 194.199 71.0752ZM202.19 71.1367C201.325 71.1367 200.616 70.9408 200.064 70.5488C199.513 70.1523 199.203 69.6169 199.135 68.9424H200.598C200.675 69.266 200.851 69.5143 201.124 69.6875C201.402 69.8607 201.757 69.9473 202.19 69.9473C202.678 69.9473 203.056 69.8447 203.325 69.6396C203.599 69.43 203.735 69.1543 203.735 68.8125C203.735 68.0788 203.22 67.7119 202.19 67.7119H201.104V66.6113H202.17C203.059 66.6113 203.503 66.2764 203.503 65.6064C203.503 65.3057 203.391 65.0664 203.168 64.8887C202.949 64.7064 202.628 64.6152 202.204 64.6152C201.789 64.6152 201.45 64.6995 201.186 64.8682C200.921 65.0368 200.764 65.2692 200.714 65.5654H199.292C199.369 64.9092 199.668 64.3896 200.188 64.0068C200.707 63.624 201.377 63.4326 202.197 63.4326C203.072 63.4326 203.749 63.6172 204.228 63.9863C204.706 64.3555 204.945 64.8522 204.945 65.4766C204.945 65.8548 204.836 66.1921 204.617 66.4883C204.398 66.7799 204.107 66.9691 203.742 67.0557V67.1104C204.216 67.2243 204.576 67.4271 204.822 67.7188C205.073 68.0104 205.198 68.3704 205.198 68.7988C205.198 69.5052 204.925 70.0726 204.378 70.501C203.831 70.9248 203.102 71.1367 202.19 71.1367ZM213.135 71V63.5762H214.604V71H213.135ZM209.334 67.042H208.035V69.8311H209.334C209.781 69.8311 210.136 69.7035 210.4 69.4482C210.669 69.193 210.804 68.8558 210.804 68.4365C210.804 68.0127 210.669 67.6755 210.4 67.4248C210.136 67.1696 209.781 67.042 209.334 67.042ZM206.565 71V63.5762H208.035V65.8799H209.45C210.312 65.8799 210.997 66.11 211.508 66.5703C212.018 67.0306 212.273 67.6527 212.273 68.4365C212.273 69.2204 212.018 69.8447 211.508 70.3096C210.997 70.7699 210.312 71 209.45 71H206.565ZM216.662 61.1357H218.187L218.077 67.7324H216.771L216.662 61.1357ZM217.421 71.1025C217.17 71.1025 216.958 71.0182 216.785 70.8496C216.612 70.681 216.525 70.4714 216.525 70.2207C216.525 69.9701 216.612 69.7604 216.785 69.5918C216.958 69.4232 217.17 69.3389 217.421 69.3389C217.676 69.3389 217.89 69.4232 218.063 69.5918C218.237 69.7604 218.323 69.9701 218.323 70.2207C218.323 70.4714 218.237 70.681 218.063 70.8496C217.89 71.0182 217.676 71.1025 217.421 71.1025Z" fill="white"/>
<path d="M67.3242 71.2188C65.8887 71.2188 64.7516 70.7585 63.9131 69.8379C63.0745 68.9128 62.6553 67.6549 62.6553 66.0645C62.6553 64.4785 63.0745 63.2253 63.9131 62.3047C64.7562 61.3796 65.8932 60.917 67.3242 60.917C68.4772 60.917 69.4525 61.2474 70.25 61.9082C71.0475 62.5645 71.5124 63.4167 71.6445 64.4648H69.6143C69.4821 63.9225 69.2087 63.4896 68.7939 63.166C68.3792 62.8379 67.8893 62.6738 67.3242 62.6738C66.5449 62.6738 65.9229 62.9792 65.458 63.5898C64.9977 64.196 64.7676 65.0186 64.7676 66.0576C64.7676 67.1104 64.9977 67.9421 65.458 68.5527C65.9183 69.1589 66.5426 69.4619 67.3311 69.4619C67.9098 69.4619 68.3997 69.3138 68.8008 69.0176C69.2064 68.7168 69.4798 68.3021 69.6211 67.7734H71.6514C71.4919 68.8307 71.0225 69.6693 70.2432 70.2891C69.4684 70.9089 68.4954 71.2188 67.3242 71.2188ZM77.1475 65.8047L81.5566 71H78.9795L75.2607 66.666H75.2061V71H73.1416V61.1357H75.2061V65.3125H75.2607L78.9043 61.1357H81.2354L77.1475 65.8047ZM89.2197 71V64.3281H89.1377L84.6602 71H82.6709V61.1357H84.7285V67.8145H84.8105L89.2881 61.1357H91.2773V71H89.2197ZM95.9805 66.8643C95.9395 67.4613 95.8711 67.9466 95.7754 68.3203C95.6797 68.6895 95.5293 68.9948 95.3242 69.2363V69.291H99.3506V62.8311H96.2402L95.9805 66.8643ZM94.292 71V72.9482H92.4189V69.291H93.1094C93.4375 69.0677 93.6699 68.7601 93.8066 68.3682C93.9434 67.9717 94.0345 67.418 94.0801 66.707L94.4219 61.1357H101.415V69.291H102.646V72.9482H100.779V71H94.292ZM107.896 65.8047L112.305 71H109.728L106.009 66.666H105.954V71H103.89V61.1357H105.954V65.3125H106.009L109.652 61.1357H111.983L107.896 65.8047ZM114.738 71.0889C114.547 71.0889 114.365 71.0775 114.191 71.0547C114.018 71.0319 113.916 71.0091 113.884 70.9863V69.3047C114.021 69.3457 114.221 69.3662 114.485 69.3662C114.8 69.3662 115.069 69.3115 115.292 69.2021C115.515 69.0928 115.711 68.9082 115.88 68.6484L112.605 61.1357H114.793L116.96 66.6182H117.015L119.079 61.1357H121.253L118.231 68.1768C117.785 69.2158 117.304 69.9609 116.789 70.4121C116.274 70.8633 115.59 71.0889 114.738 71.0889Z" fill="#00FBF4"/>
</g>
<defs>
<filter id="filter0_b_2_4407" x="-20" y="-20" width="303" height="124" filterUnits="userSpaceOnUse" color-interpolation-filters="sRGB">
<feFlood flood-opacity="0" result="BackgroundImageFix"/>
<feGaussianBlur in="BackgroundImage" stdDeviation="10"/>
<feComposite in2="SourceAlpha" operator="in" result="effect1_backgroundBlur_2_4407"/>
<feBlend mode="normal" in="SourceGraphic" in2="effect1_backgroundBlur_2_4407" result="shape"/>
</filter>
</defs>
</svg>
